<?xml version="1.0" standalone="no"?>
<!DOCTYPE svg PUBLIC "-//W3C//DTD SVG 20010904//EN"
 "http://www.w3.org/TR/2001/REC-SVG-20010904/DTD/svg10.dtd">
<svg version="1.0" xmlns="http://www.w3.org/2000/svg"
 width="1024.000000pt" height="1024.000000pt" viewBox="0 0 1024.000000 1024.000000"
 preserveAspectRatio="xMidYMid meet">
<metadata>
Created by potrace 1.14, written by Peter Selinger 2001-2017
</metadata>
<g transform="translate(0.000000,1024.000000) scale(0.100000,-0.100000)"
fill="#000000" stroke="none">
<path d="M5620 9510 c-24 -24 -26 -47 -6 -69 16 -18 12 -32 -71 -249 l-48
-124 -95 -50 c-52 -28 -135 -71 -185 -95 -49 -25 -91 -47 -93 -48 -1 -1 14
-55 33 -121 20 -65 36 -129 37 -141 2 -16 11 -22 39 -27 49 -8 71 -30 67 -70
-3 -26 -14 -38 -68 -73 -36 -23 -99 -65 -140 -93 -41 -28 -124 -83 -185 -122
-60 -39 -159 -103 -220 -143 -60 -39 -175 -110 -255 -158 -80 -47 -158 -95
-175 -106 -36 -25 -45 -26 -45 -5 0 16 61 275 66 283 2 1 26 -5 55 -14 58 -20
109 -63 112 -94 1 -20 1 -20 32 -1 16 10 36 33 43 50 12 29 11 31 -20 50 -42
25 -42 25 -72 -7 -19 -21 -26 -23 -30 -12 -92 256 -221 549 -243 549 -7 0 -13
-3 -13 -8 0 -4 -32 -41 -71 -82 l-72 -75 27 -112 c15 -62 25 -117 21 -123 -3
-5 -1 -10 6 -10 6 0 9 -8 6 -20 -3 -11 0 -20 6 -20 6 0 1 -9 -11 -21 -31 -29
-130 -72 -148 -65 -8 3 -13 2 -10 -3 3 -5 -8 -14 -24 -20 -17 -5 -30 -13 -30
-16 0 -3 16 1 35 9 20 9 38 15 40 15 3 0 27 10 53 22 63 28 131 49 163 49 21
0 116 -26 127 -36 2 -1 -11 -66 -29 -143 -31 -131 -34 -140 -54 -135 -13 3
-27 -1 -34 -10 -8 -9 -24 -16 -36 -16 -18 0 -242 45 -382 77 -31 7 -30 -15 1
-26 13 -5 95 -24 182 -41 200 -40 194 -39 171 -51 -10 -6 -48 -17 -85 -25 -48
-10 -54 -13 -22 -9 25 2 65 7 89 11 61 10 51 -10 -25 -54 -32 -18 -49 -30 -36
-27 35 10 26 1 -41 -43 -34 -22 -98 -68 -142 -101 -44 -34 -87 -60 -95 -59
-17 4 -27 38 -10 38 6 0 8 -6 5 -12 -4 -7 0 -4 9 6 20 24 12 36 -23 36 -24 0
-36 11 -75 68 l-46 67 33 6 32 6 -37 2 c-21 0 -38 5 -38 10 0 4 36 19 80 32
45 14 80 30 80 37 0 14 -78 65 -160 103 -47 23 -70 27 -160 28 l-105 2 -107
-56 c-60 -31 -108 -54 -108 -50 0 3 -10 -3 -22 -15 -27 -25 -35 -25 -41 -2 -4
13 -5 12 -6 -5 -1 -30 -166 -110 -188 -91 -36 29 -35 46 7 138 22 50 40 93 40
98 0 16 -44 -67 -65 -123 -20 -53 -28 -62 -68 -82 -34 -16 -53 -35 -73 -70
-15 -26 -42 -71 -60 -100 -18 -28 -29 -53 -23 -55 5 -2 14 -20 18 -41 9 -36 7
-39 -39 -80 -26 -23 -77 -62 -113 -87 -36 -25 -68 -53 -71 -64 -4 -16 0 -15
22 6 15 14 37 31 50 37 12 7 58 41 102 76 74 61 80 64 109 54 l31 -11 0 -88
c0 -49 4 -91 9 -94 4 -3 6 35 3 84 -5 105 -10 102 106 70 39 -11 76 -20 81
-20 6 0 20 33 31 73 11 39 25 81 30 92 8 18 9 18 9 -5 1 -18 4 -21 10 -11 7
11 20 7 69 -19 33 -18 66 -29 72 -25 6 3 9 1 8 -5 -3 -13 101 -72 477 -266
143 -74 266 -141 273 -148 11 -11 6 -19 -30 -47 -58 -46 -328 -272 -527 -442
-115 -99 -170 -140 -194 -144 l-32 -5 -67 164 c-160 389 -181 439 -188 427 -4
-6 0 -26 10 -43 10 -17 59 -132 110 -256 119 -294 114 -280 107 -287 -6 -6
-299 266 -424 393 -33 34 -63 60 -66 57 -3 -2 27 -37 67 -76 292 -287 396
-392 396 -399 0 -4 -10 -8 -21 -8 -26 0 -406 65 -674 116 -305 57 -280 49
-301 97 -10 22 -18 50 -17 62 3 18 2 18 -7 -2 -5 -13 -14 -23 -20 -23 -6 0
-20 -16 -32 -36 -13 -22 -26 -33 -35 -30 -27 11 -246 47 -257 43 -6 -2 34 -12
89 -21 55 -9 132 -25 170 -36 39 -11 95 -21 125 -24 30 -2 165 -24 300 -49
135 -25 328 -60 430 -77 217 -38 260 -48 260 -60 0 -8 -201 -200 -269 -256
l-33 -28 3 55 4 54 -53 -28 c-30 -17 -49 -33 -46 -39 4 -7 2 -8 -5 -4 -6 4
-27 -2 -45 -14 -19 -11 -38 -19 -43 -18 -4 2 -52 -21 -105 -50 -54 -29 -112
-55 -130 -59 -35 -6 -64 -26 -79 -55 -7 -13 -6 -16 4 -12 7 2 45 -12 85 -31
l72 -36 -16 -32 c-13 -28 -13 -30 0 -13 8 10 17 24 19 29 4 14 73 -26 70 -40
-1 -6 3 -10 10 -10 33 1 47 -4 47 -17 0 -8 24 -96 54 -197 50 -171 53 -185 39
-208 -13 -22 -13 -23 0 -8 8 9 17 17 20 17 3 0 20 -46 38 -102 56 -184 242
-708 250 -708 8 0 -117 373 -205 614 -20 54 -36 101 -36 105 0 4 41 26 90 50
50 25 88 46 86 48 -2 2 -40 -14 -85 -36 -44 -23 -85 -41 -90 -41 -5 0 -16 21
-25 46 l-16 46 39 67 c71 120 58 118 150 26 79 -78 80 -80 58 -93 l-22 -13 23
7 c18 4 32 -1 55 -23 18 -15 25 -19 16 -8 -34 42 -33 44 38 76 37 16 91 42
120 57 29 14 54 24 55 21 2 -2 18 -40 36 -84 l32 -80 -32 -25 c-62 -49 -73
-59 -61 -60 7 0 35 20 63 45 40 36 55 44 78 39 146 -26 258 -42 263 -36 11 12
99 188 99 198 0 5 -19 17 -43 28 -39 17 -278 114 -321 129 -10 4 -17 10 -14
12 4 5 117 -26 158 -42 8 -3 18 -6 22 -5 15 3 78 -29 73 -37 -2 -5 7 -12 23
-16 15 -3 58 -24 95 -47 51 -29 72 -37 80 -29 8 8 5 15 -11 27 -26 18 -29 34
-7 34 13 0 14 4 4 21 -6 12 -9 30 -6 40 3 12 0 19 -9 19 -8 0 -14 5 -14 10 0
6 -8 10 -19 10 -12 0 -68 66 -168 198 -260 343 -267 352 -277 342 -12 -12 12
-42 27 -33 5 3 7 1 3 -5 -3 -6 79 -122 182 -259 217 -285 215 -268 29 -238
-56 8 -127 17 -157 19 -65 4 -59 2 -225 81 -71 34 -182 79 -245 101 -63 21
-116 40 -118 41 -2 0 3 20 11 43 l14 41 29 -24 c75 -63 163 -115 184 -110 15
4 18 8 9 14 -10 6 1 54 46 208 32 111 55 204 52 207 -3 3 -8 -3 -11 -13 -3
-10 -23 -82 -45 -160 -44 -150 -75 -233 -89 -233 -31 0 -182 124 -182 150 0
19 290 303 315 308 9 2 15 -4 15 -16 0 -15 11 -8 53 32 29 28 58 58 63 66 10
16 28 32 399 351 292 250 340 289 354 289 6 0 15 10 22 21 9 17 8 23 -2 30
-11 7 6 69 86 306 106 317 131 383 144 383 5 0 26 -19 47 -42 48 -53 231 -227
345 -328 71 -63 77 -67 42 -26 -24 27 -82 85 -130 129 -153 140 -283 271 -283
285 0 23 26 24 96 3 69 -19 154 -35 154 -27 0 2 -50 16 -110 31 -61 15 -113
31 -115 35 -3 5 47 41 111 81 92 56 118 69 125 58 7 -11 9 -11 9 2 0 10 83 70
216 155 119 76 304 197 410 267 107 71 205 129 217 129 12 1 82 16 156 35 80
21 143 32 158 28 25 -6 25 -6 7 -27 -29 -32 -197 -166 -309 -246 -55 -39 -120
-87 -145 -106 -25 -20 -82 -61 -127 -93 -59 -41 -81 -62 -76 -73 16 -39 43
-146 39 -156 -2 -6 -44 -21 -93 -33 -112 -28 -316 -91 -311 -96 2 -3 89 20
193 50 104 30 195 55 202 55 7 0 18 -12 23 -26 8 -20 15 -24 33 -19 12 3 4 -4
-18 -15 -22 -11 -44 -25 -50 -31 -5 -6 3 -5 19 3 l29 15 66 -76 c96 -110 111
-131 111 -158 0 -27 -1 -27 -139 14 -45 13 -85 22 -88 19 -7 -6 20 -17 127
-53 41 -14 79 -29 83 -33 7 -6 -207 -179 -232 -188 -5 -2 -23 18 -40 44 -17
26 -31 43 -31 37 0 -5 14 -29 31 -53 35 -48 37 -45 -50 -104 -45 -30 -56 -34
-70 -24 -91 71 -100 81 -90 102 10 20 10 20 -5 2 -15 -19 -16 -19 -38 0 -22
18 -21 17 1 -8 29 -33 33 -28 -101 -160 -54 -54 -98 -105 -98 -115 0 -12 12
-4 38 27 20 25 71 81 114 126 l77 81 45 -36 c52 -42 56 -51 20 -51 l-25 0 20
-26 21 -27 -62 -34 c-35 -18 -99 -52 -142 -73 -44 -22 -74 -40 -68 -40 14 0
126 55 198 98 28 16 66 32 85 36 33 6 42 1 134 -74 54 -44 101 -77 104 -75 2
3 15 -4 27 -16 13 -12 38 -25 56 -30 l33 -9 -37 4 c-29 4 -36 2 -31 -10 3 -8
12 -13 19 -10 8 3 14 1 14 -4 0 -6 4 -9 9 -8 5 2 9 -1 10 -7 1 -5 -3 -10 -8
-10 -21 0 -21 -14 0 -49 37 -63 14 -39 -42 44 -30 43 -57 79 -62 80 -4 0 0
-11 9 -25 8 -13 12 -30 8 -36 -4 -8 -3 -9 4 -5 20 12 2 -55 -25 -98 -23 -36
-24 -40 -9 -51 9 -7 14 -19 11 -27 -4 -9 1 -18 10 -22 15 -5 61 -94 53 -101
-6 -6 -578 -17 -578 -11 0 3 18 22 40 42 43 39 42 35 24 137 -5 22 -2 27 15
27 11 0 22 4 25 9 3 4 -5 6 -18 4 -19 -4 -24 0 -30 27 -3 18 -6 47 -6 64 0 17
-4 26 -8 20 -9 -14 -149 -76 -178 -80 -17 -1 -20 2 -17 17 3 10 10 19 16 19 6
0 8 3 4 6 -6 7 19 64 29 64 2 0 0 -9 -6 -21 -7 -11 -9 -23 -7 -26 6 -5 21 34
21 57 1 8 7 14 14 12 8 -1 11 2 7 8 -3 5 2 23 11 40 10 16 16 31 13 34 -2 2
-56 -14 -119 -35 -63 -22 -143 -47 -177 -56 -60 -15 -74 -25 -54 -37 11 -7
101 -220 101 -239 0 -8 -18 -34 -39 -58 l-39 -44 -81 165 c-99 202 -100 195
-1 -24 68 -152 90 -188 90 -153 0 7 22 34 49 61 l49 48 71 -38 c39 -22 71 -42
71 -45 0 -4 -28 -12 -63 -19 -69 -13 -108 -30 -70 -30 12 0 44 5 72 11 27 6
61 9 75 7 l26 -3 -22 -35 c-11 -19 -22 -48 -23 -65 -2 -23 5 -14 30 39 17 39
34 65 38 59 7 -11 -18 -371 -26 -380 -3 -2 -25 8 -49 23 -23 15 -51 27 -61 26
-9 0 -15 3 -12 9 11 17 -11 9 -61 -23 -27 -18 -76 -46 -108 -63 -55 -29 -61
-35 -80 -89 l-20 -58 24 -19 c14 -11 50 -40 81 -63 l57 -43 -202 -103 c-110
-56 -205 -107 -211 -112 -5 -5 86 38 203 96 118 58 226 106 240 106 42 -1 129
-60 117 -79 -3 -6 0 -9 7 -6 7 3 38 -23 71 -60 44 -49 54 -65 40 -66 -10 0
-13 -3 -5 -6 18 -7 15 -40 -5 -48 -10 -4 -47 -15 -83 -25 -36 -10 -58 -19 -50
-19 9 -1 42 6 73 14 73 19 81 19 73 -2 -6 -15 -5 -16 11 -1 28 24 89 32 105
13 20 -24 23 -27 163 -137 71 -57 166 -138 210 -180 72 -69 113 -96 103 -69
-4 13 -182 168 -340 298 -115 94 -144 123 -120 123 4 0 34 -9 68 -19 115 -36
336 -92 353 -89 9 2 -11 11 -44 20 -33 9 -123 35 -200 58 -77 22 -146 40 -153
40 -16 0 -16 17 1 24 6 3 3 5 -8 5 -11 -1 -28 -1 -37 0 -34 2 -115 96 -162
189 -15 29 -15 34 -1 48 8 8 15 23 15 32 1 9 8 35 16 57 26 68 34 148 18 166
-13 14 -13 42 1 204 8 104 16 189 18 191 7 7 328 -338 324 -349 -2 -6 -45 -68
-94 -137 -108 -151 -153 -220 -129 -201 10 8 31 35 48 59 27 39 33 43 61 38
32 -6 32 -6 5 5 l-27 10 76 107 c42 59 78 109 79 111 6 8 55 -36 161 -149 107
-113 115 -124 111 -156 -4 -33 -3 -34 32 -33 26 0 41 7 58 29 22 29 22 30 7
88 -8 33 -15 64 -14 68 1 16 27 -61 28 -83 1 -12 4 -24 9 -26 8 -6 -3 352 -16
522 -5 58 -8 107 -8 108 2 3 145 -191 276 -372 110 -154 181 -247 164 -215
-18 33 -190 278 -224 320 -21 25 -74 96 -119 159 -80 112 -81 114 -59 125 12
6 40 36 61 66 89 128 125 168 158 175 18 4 40 17 49 28 17 21 18 21 66 2 69
-25 456 -202 511 -232 69 -39 75 -77 8 -48 -21 8 -40 14 -42 11 -2 -2 14 -11
36 -19 73 -30 72 -41 -20 -185 -45 -70 -97 -151 -116 -179 -47 -74 -33 -66 18
10 111 164 203 287 215 287 7 0 16 -12 20 -27 10 -48 14 -50 9 -5 -3 23 -3 42
1 42 6 0 71 -54 158 -130 28 -25 62 -52 75 -61 l24 -15 -76 -95 c-103 -127
-104 -130 -86 -182 12 -35 18 -42 39 -39 13 1 32 10 42 19 24 21 23 12 -3 -31
-21 -35 -29 -40 -59 -36 -26 3 3 -18 30 -23 14 -2 19 -2 12 0 -10 4 -10 8 -1
19 6 7 15 12 19 9 5 -3 12 0 16 6 4 8 3 9 -4 5 -7 -4 -12 -3 -12 2 0 6 6 12
13 15 17 6 197 -20 245 -36 l37 -12 17 95 c9 52 17 132 17 178 l1 83 -22 -13
c-35 -19 -58 -18 -58 3 0 11 5 19 12 19 6 0 8 3 5 7 -4 3 -16 -3 -28 -15 -11
-13 -24 -20 -30 -17 -5 4 -9 -4 -9 -16 0 -21 1 -21 19 -5 13 12 21 14 26 6 3
-5 12 -7 18 -3 21 12 -27 -38 -65 -68 l-37 -30 5 27 c3 14 0 31 -5 38 -13 16
-21 60 -13 73 4 6 16 13 27 16 15 3 13 5 -8 6 l-28 1 23 33 c12 17 56 67 97
110 41 42 72 80 69 82 -3 3 -43 -38 -89 -91 -46 -53 -90 -102 -97 -110 -14
-14 -38 -9 -45 9 -2 7 -3 4 -2 -5 4 -23 -13 -23 -45 -1 -40 27 -210 184 -210
194 0 5 42 10 93 11 l92 2 -84 5 c-47 3 -86 11 -88 16 -1 6 23 40 55 76 31 37
90 118 131 182 73 114 106 141 104 86 0 -13 -1 -97 -2 -186 -1 -148 -3 -163
-18 -163 -17 -1 -17 -1 -1 -10 17 -10 17 -10 3 -150 -4 -36 -3 -62 0 -58 14
14 24 160 26 379 1 215 -2 259 -22 259 -5 0 -9 5 -9 11 0 5 5 7 12 3 7 -4 8
-3 4 5 -4 6 -12 9 -17 6 -5 -4 -9 5 -9 19 0 32 17 42 38 23 9 -8 26 -19 37
-25 36 -18 29 24 -8 50 -18 12 -35 27 -39 32 -22 35 -36 45 -17 12 18 -31 19
-40 8 -47 -8 -5 -16 -9 -19 -9 -9 0 -285 268 -280 272 3 2 29 18 59 36 43 26
56 30 64 20 6 -10 7 -9 3 4 -3 12 7 22 39 38 50 24 67 27 110 16 l30 -7 -31
19 c-17 11 -73 36 -125 57 -52 21 -97 39 -101 42 -5 2 -8 2 -8 -2 0 -5 129
-67 159 -77 9 -2 -4 -15 -33 -31 -27 -15 -52 -24 -57 -21 -5 3 -8 0 -7 -7 2
-7 -22 -28 -52 -46 l-55 -34 -42 48 c-24 26 -80 103 -125 171 -45 67 -85 122
-88 122 -3 0 -24 -47 -46 -103 -96 -237 -112 -266 -211 -376 l-40 -45 -32 23
-33 24 109 108 109 108 -27 73 c-50 137 -38 130 -102 52 -31 -38 -66 -80 -77
-93 -11 -13 -20 -36 -20 -51 0 -48 -41 -185 -60 -200 -10 -8 -30 -54 -44 -101
-28 -93 -50 -124 -78 -108 -11 6 -15 16 -11 27 6 15 5 16 -13 2 -18 -14 -18
-14 -5 2 7 10 17 16 21 13 14 -9 104 145 92 157 -7 7 -22 -8 -50 -49 -43 -64
-69 -90 -79 -79 -3 3 -7 40 -7 81 0 42 -3 68 -7 58 -7 -22 -13 2 -29 121 -6
44 -13 82 -17 85 -3 3 -3 -14 0 -39 21 -160 20 -172 -12 -220 l-31 -45 0 66
c0 36 -3 127 -7 202 -5 121 -4 137 10 137 8 0 17 -10 20 -22 2 -13 4 4 3 38 0
64 20 110 105 236 21 31 41 75 45 97 4 24 12 41 20 41 16 0 164 -54 203 -74
26 -14 30 -14 41 -1 10 12 9 15 -6 15 -35 1 -239 86 -241 100 -2 10 81 58 258
149 237 121 264 132 287 122 21 -10 28 -9 48 10 13 13 24 28 24 34 0 6 99 82
220 169 121 88 220 162 220 167 0 19 -25 12 -53 -14 -17 -16 -61 -50 -97 -75
-36 -25 -79 -59 -97 -75 -19 -17 -38 -27 -47 -24 -9 4 -13 1 -11 -6 4 -11
-123 -109 -159 -123 -11 -4 -29 7 -52 32 -20 22 -31 29 -25 17 18 -35 13 -38
-16 -12 -26 22 -26 22 2 -9 22 -24 27 -37 20 -48 -13 -21 -507 -284 -533 -284
-5 0 -21 27 -37 60 -15 32 -32 57 -37 54 -4 -3 -5 2 -2 11 6 15 -10 16 -168
13 l-174 -3 70 47 c39 26 100 71 136 100 36 29 97 75 135 103 96 69 255 197
284 229 27 28 41 33 41 14 0 -7 41 -56 91 -108 103 -108 66 -49 -52 82 l-69
77 34 6 c19 4 42 15 50 24 15 16 15 19 -2 34 -10 9 -68 41 -129 71 -61 30
-114 59 -117 64 -9 15 96 46 270 82 83 16 156 30 162 30 7 0 12 -14 12 -31 0
-65 37 -87 125 -74 35 6 45 12 45 26 0 10 5 29 12 43 9 21 8 33 -7 66 -10 22
-25 40 -33 40 -8 0 -12 -6 -9 -15 4 -8 2 -17 -4 -20 -5 -4 -7 -10 -4 -15 3 -5
1 -11 -5 -15 -6 -4 -10 9 -10 32 0 47 -8 60 -40 64 -20 3 -52 47 -172 234 -94
147 -144 233 -138 239 17 17 11 54 -12 70 -30 21 -44 20 -68 -4z m107 -148
c147 -228 243 -389 243 -408 0 -49 -27 -63 -180 -93 -141 -28 -145 -28 -158
-10 -7 11 -17 17 -22 14 -4 -3 -11 2 -14 11 -4 9 -2 13 5 8 8 -4 7 0 0 15 -7
11 -14 21 -17 21 -3 0 -2 -5 2 -12 4 -7 3 -8 -4 -4 -6 4 -8 14 -5 23 4 10 2
14 -4 10 -6 -4 -10 1 -9 11 0 9 -5 16 -12 14 -8 -1 -11 2 -8 7 4 5 -2 24 -13
42 -21 35 -22 34 -40 -33 -10 -39 -4 -115 9 -123 4 -3 11 7 14 20 7 29 26 25
23 -5 -1 -10 -5 -16 -9 -14 -4 3 -8 -2 -8 -10 0 -17 20 -17 33 -1 5 6 5 0 2
-12 -5 -18 -3 -22 10 -17 10 4 15 14 12 25 -6 23 -3 24 18 2 16 -15 12 -18
-62 -48 -43 -18 -82 -30 -86 -28 -9 5 -8 11 30 183 14 63 29 117 34 120 4 3
28 62 53 131 60 169 74 202 93 216 21 16 27 12 70 -55z m-99 -527 c-3 -3 -9 2
-12 12 -6 14 -5 15 5 6 7 -7 10 -15 7 -18z m-251 -297 c-3 -8 -6 -5 -6 6 -1
11 2 17 5 13 3 -3 4 -12 1 -19z m-47 -591 c0 -2 -10 -12 -22 -23 l-23 -19 19
23 c18 21 26 27 26 19z m-50 -61 c0 -2 -8 -10 -17 -17 -16 -13 -17 -12 -4 4
13 16 21 21 21 13z m-48 -40 c7 4 8 2 4 -4 -11 -18 -26 -14 -25 6 0 10 3 12 6
4 2 -6 10 -9 15 -6z m-1908 -63 c11 -38 27 -85 37 -106 13 -27 14 -39 6 -42
-164 -51 -346 -97 -356 -90 -5 3 -11 1 -13 -3 -1 -5 -15 -12 -31 -16 -21 -5
-29 -2 -34 11 -4 10 -20 35 -36 55 -17 21 -28 40 -26 42 14 14 145 66 155 62
7 -3 14 0 16 5 3 8 240 144 258 148 3 1 14 -29 24 -66z m814 -18 c-6 -14 -13
-23 -15 -21 -5 5 15 46 22 46 3 0 -1 -11 -7 -25z m-8 -45 c0 -5 -9 -14 -20
-20 -19 -10 -20 -10 -8 9 13 22 28 28 28 11z m35 -27 c-18 -44 -146 -411 -184
-526 -24 -70 -47 -125 -52 -122 -5 3 -24 36 -42 73 -56 111 -139 266 -153 287
-16 23 -18 35 -5 35 9 0 97 60 265 178 33 23 67 42 76 42 9 0 27 11 40 25 28
30 66 35 55 8z m-120 -23 c-3 -5 -12 -10 -18 -10 -7 0 -6 4 3 10 19 12 23 12
15 0z m-488 -17 c46 -59 113 -158 113 -169 0 -7 -9 -15 -19 -19 -27 -8 -354
-34 -363 -28 -5 2 -8 -1 -8 -8 0 -12 5 -11 310 6 60 4 78 2 63 -5 -32 -13 -29
-22 3 -10 53 21 52 22 174 -213 85 -165 89 -177 59 -177 -12 0 -139 60 -283
134 -144 74 -303 155 -353 181 -51 26 -93 51 -93 57 0 5 -38 27 -85 50 -47 22
-85 44 -85 48 0 16 30 28 150 59 181 48 289 78 335 95 53 19 65 19 82 -1z
m1713 -149 c0 -27 -18 -23 -22 6 -4 24 -2 27 9 19 7 -7 13 -17 13 -25z m-2290
6 c0 -5 -5 -10 -11 -10 -5 0 -7 5 -4 10 3 6 8 10 11 10 2 0 4 -4 4 -10z m743
-7 c-7 -2 -19 -2 -25 0 -7 3 -2 5 12 5 14 0 19 -2 13 -5z m1518 -300 c2 -117
0 -215 -4 -219 -15 -15 -55 22 -141 130 -50 62 -91 117 -93 122 -2 6 23 30 56
54 33 23 86 62 118 85 32 23 59 42 60 41 1 0 3 -96 4 -213z m-2347 141 c3 -8
2 -12 -4 -9 -6 3 -10 10 -10 16 0 14 7 11 14 -7z m3261 -62 c28 -20 38 -42 25
-57 -11 -13 -10 -14 4 -9 10 4 24 -1 35 -10 10 -9 21 -13 25 -9 4 5 6 4 5 -2
-2 -5 47 -59 110 -120 66 -64 107 -111 99 -113 -8 -1 -46 11 -84 28 -80 36
-75 26 8 -17 l58 -30 -58 -6 c-158 -16 -520 -57 -538 -62 -14 -3 -31 7 -58 34
l-37 38 28 23 28 22 -29 -17 -29 -17 -40 41 -41 40 24 26 c13 14 19 25 14 25
-5 0 5 9 21 20 17 11 27 20 22 20 -16 0 94 100 115 104 13 2 79 16 148 29 69
14 127 26 130 26 3 0 10 -3 15 -7z m-1127 -103 c18 -24 56 -72 83 -107 55 -70
58 -78 29 -62 -12 6 -64 27 -116 45 -103 38 -144 60 -144 80 0 16 91 95 105
91 6 -1 25 -22 43 -47z m586 -90 l38 -32 -83 -83 c-46 -46 -89 -84 -96 -84
-17 0 -17 -3 11 72 35 93 68 158 81 158 6 0 28 -14 49 -31z m-667 -28 c40 -16
109 -42 153 -57 44 -15 80 -31 80 -35 0 -17 -52 -42 -91 -45 -21 -1 -37 1 -34
5 2 5 -43 43 -100 86 -97 71 -124 96 -92 82 6 -3 45 -19 84 -36z m396 -131
c16 0 87 -58 87 -72 0 -10 -123 -5 -187 8 -27 5 -34 12 -39 40 -9 48 0 66 30
58 19 -4 25 -1 31 18 4 12 19 43 34 68 l26 45 3 -82 c2 -58 7 -83 15 -83z
m354 68 c18 -18 33 -35 33 -39 0 -4 -29 -26 -65 -49 -36 -24 -64 -45 -62 -47
3 -2 32 14 65 37 34 22 64 40 67 40 4 0 22 -15 42 -33 l35 -34 -99 -10 c-135
-15 -190 -16 -198 -2 -4 6 15 33 44 63 29 29 51 59 49 66 -2 8 2 14 9 15 7 0
18 6 25 13 17 17 18 16 55 -20z m-117 -31 c0 -2 -15 -16 -32 -33 l-33 -29 29
33 c28 30 36 37 36 29z m879 -69 l-12 -23 22 20 c19 16 24 17 32 5 12 -20 9
-27 -68 -138 -106 -154 -194 -262 -214 -262 -10 0 -46 15 -81 33 -70 36 -202
98 -378 177 -63 28 -124 55 -135 60 -11 5 -33 14 -48 20 -33 12 -28 26 11 34
15 3 191 24 392 46 201 22 372 42 380 44 8 2 37 4 63 5 46 1 47 0 36 -21z
m-1042 -84 c-3 -3 -12 -4 -19 -1 -8 3 -5 6 6 6 11 1 17 -2 13 -5z m-222 -120
c9 -15 12 -23 6 -20 -11 7 -35 46 -28 46 3 0 12 -12 22 -26z m-105 -213 c-6
-12 -65 -94 -132 -183 l-120 -161 -51 54 c-28 30 -102 106 -164 170 -62 64
-113 120 -113 125 0 5 128 10 296 12 295 3 295 3 284 -17z m36 -103 c0 -51 2
-113 6 -138 5 -29 4 -38 -2 -25 -8 18 -12 -85 -12 -297 0 -27 -2 -48 -4 -48
-10 0 -254 247 -254 258 0 10 32 53 215 289 22 29 43 52 46 52 4 1 6 -41 5
-91z m-2015 -89 c-6 -16 -10 -18 -10 -7 -1 22 12 55 16 42 2 -6 -1 -22 -6 -35z
m2036 -131 c-3 -7 -5 -2 -5 12 0 14 2 19 5 13 2 -7 2 -19 0 -25z m-812 -17
c-3 -5 -1 -12 5 -16 6 -4 8 -11 4 -16 -9 -14 -23 -1 -19 19 5 23 4 22 11 22 3
0 3 -4 -1 -9z m822 -33 c-3 -7 -5 -2 -5 12 0 14 2 19 5 13 2 -7 2 -19 0 -25z
m10 -40 c-3 -8 -6 -5 -6 6 -1 11 2 17 5 13 3 -3 4 -12 1 -19z m-767 -23 c15 9
12 -1 -4 -14 -12 -10 -17 -8 -27 11 -11 21 -11 22 4 10 9 -8 21 -11 27 -7z
m777 -17 c-3 -8 -6 -5 -6 6 -1 11 2 17 5 13 3 -3 4 -12 1 -19z m1343 9 c0 -2
-12 -14 -27 -28 l-28 -24 24 28 c23 25 31 32 31 24z m-1333 -59 c-3 -7 -5 -2
-5 12 0 14 2 19 5 13 2 -7 2 -19 0 -25z m1268 -16 c-3 -3 -11 0 -18 7 -9 10
-8 11 6 5 10 -3 15 -9 12 -12z m-3678 -165 c13 0 21 -3 18 -7 -2 -4 35 -18 83
-30 78 -20 300 -125 289 -136 -3 -3 -110 16 -227 41 -8 2 -21 4 -29 4 -11 1
-9 7 7 24 15 16 18 27 12 37 -9 14 -14 7 -11 -13 1 -5 -3 -6 -8 -2 -6 3 -16
-3 -22 -13 -11 -17 -16 -18 -113 -3 -55 8 -102 15 -104 16 -2 2 7 23 20 49 18
39 25 45 43 39 11 -4 30 -7 42 -6z m1627 -43 c16 -25 49 -70 73 -100 56 -69
38 -71 -25 -2 -26 29 -66 71 -90 94 -41 41 -42 51 -2 53 8 1 28 -20 44 -45z
m-1672 -106 c48 -24 87 -46 88 -51 0 -4 -12 -26 -26 -48 l-26 -41 -92 88 c-52
49 -94 93 -95 98 -2 17 65 -4 151 -46z m124 -10 c-6 -10 -17 -18 -24 -18 -12
0 -152 67 -152 73 0 2 42 -6 94 -17 85 -18 93 -22 82 -38z m-137 -91 l43 -45
-48 -81 c-27 -44 -52 -77 -55 -73 -8 8 -51 149 -73 237 -8 33 -18 71 -22 85
-6 21 1 17 52 -27 32 -28 79 -72 103 -96z m342 72 c179 -36 174 -32 144 -121
-15 -44 -18 -46 -141 -108 l-126 -63 -69 69 c-96 95 -97 95 -59 154 l32 49 66
-25 c104 -40 174 -64 186 -64 17 1 -62 34 -139 60 -38 12 -78 27 -88 32 -18 9
-18 11 -1 29 9 10 21 19 27 19 5 0 81 -14 168 -31z"/>
<path d="M5474 8873 c2 -13 0 -23 -5 -23 -5 0 -9 -10 -8 -22 0 -16 2 -18 6 -8
3 8 10 18 15 21 5 3 4 16 -2 30 -10 22 -10 23 -6 2z"/>
<path d="M3021 7624 c0 -11 3 -14 6 -6 3 7 2 16 -1 19 -3 4 -6 -2 -5 -13z"/>
<path d="M4058 7643 c-10 -2 -18 -9 -18 -14 0 -12 -69 -104 -140 -189 -45 -52
-105 -136 -83 -115 22 21 170 202 192 235 13 19 36 47 49 63 14 15 24 26 21
26 -2 -1 -12 -3 -21 -6z"/>
<path d="M6090 7170 c-9 -6 -10 -10 -3 -10 6 0 15 5 18 10 8 12 4 12 -15 0z"/>
<path d="M6074 7136 c11 -9 24 -16 30 -16 12 0 7 5 -24 19 -24 11 -24 11 -6
-3z"/>
<path d="M5978 7093 c7 -3 16 -2 19 1 4 3 -2 6 -13 5 -11 0 -14 -3 -6 -6z"/>
<path d="M6200 7076 c0 -3 9 -10 20 -16 11 -6 20 -8 20 -6 0 3 -9 10 -20 16
-11 6 -20 8 -20 6z"/>
<path d="M6277 7029 c7 -7 15 -10 18 -7 3 3 -2 9 -12 12 -14 6 -15 5 -6 -5z"/>
<path d="M4903 7133 c9 -2 25 -2 35 0 9 3 1 5 -18 5 -19 0 -27 -2 -17 -5z"/>
<path d="M5211 6914 c0 -11 3 -14 6 -6 3 7 2 16 -1 19 -3 4 -6 -2 -5 -13z"/>
<path d="M6269 6643 c-13 -16 -12 -17 4 -4 9 7 17 15 17 17 0 8 -8 3 -21 -13z"/>
<path d="M6030 6616 c0 -2 8 -10 18 -17 15 -13 16 -12 3 4 -13 16 -21 21 -21
13z"/>
<path d="M6200 6545 c-7 -9 -11 -17 -9 -20 3 -2 10 5 17 15 14 24 10 26 -8 5z"/>
<path d="M6677 8819 c-25 -38 -55 -131 -72 -227 -8 -48 -22 -94 -32 -106 -36
-42 19 4 68 57 l46 50 89 -50 c152 -86 244 -135 244 -130 0 3 -69 44 -152 92
-84 48 -158 92 -165 98 -17 18 -4 67 21 77 17 7 18 9 4 9 -14 1 -18 11 -19 49
-1 26 -4 61 -8 77 l-7 30 -17 -26z"/>
<path d="M6712 8820 c0 -14 2 -19 5 -12 2 6 2 18 0 25 -3 6 -5 1 -5 -13z"/>
<path d="M3912 8785 c-7 -8 -9 -15 -4 -15 5 0 15 7 22 15 16 19 -1 19 -18 0z"/>
<path d="M6600 8705 c-11 -13 -10 -14 4 -9 9 3 16 10 16 15 0 13 -6 11 -20 -6z"/>
<path d="M6755 8674 c6 -2 72 -22 149 -44 76 -21 139 -41 140 -42 35 -59 37
-60 76 -53 33 6 55 0 139 -39 55 -25 104 -46 108 -46 4 0 23 -9 42 -21 l35
-21 -70 -30 c-38 -17 -79 -41 -92 -54 l-22 -23 -37 22 c-51 30 -165 78 -172
72 -2 -3 11 -11 30 -18 58 -21 154 -72 154 -82 0 -5 -20 -14 -45 -21 -55 -15
-32 -17 29 -3 49 11 71 0 71 -35 0 -12 3 -16 8 -10 9 13 45 27 37 15 -3 -5 13
-31 35 -57 26 -30 39 -52 35 -62 -3 -9 -3 -13 1 -9 4 4 13 2 20 -3 6 -6 16 -9
22 -8 5 2 78 -67 161 -152 145 -150 150 -156 151 -197 0 -33 4 -43 16 -43 9 0
28 -9 43 -19 l27 -20 12 57 c11 51 10 58 -5 70 -10 7 -34 12 -53 10 -33 -3
-43 5 -174 140 -77 78 -137 145 -133 148 6 6 125 -52 412 -202 115 -60 120
-64 128 -101 5 -21 10 -54 10 -73 3 -53 22 -53 22 1 0 42 2 45 24 43 12 -1 33
-11 45 -21 11 -10 -6 8 -39 40 -61 58 -110 88 -400 236 -77 40 -151 81 -165
91 l-25 20 43 0 c68 0 806 -73 862 -86 24 -6 24 -6 -12 -25 -46 -24 -193 -129
-180 -129 5 0 53 29 107 65 86 58 125 76 125 60 0 -3 -20 -46 -45 -95 -62
-123 -57 -136 8 -21 28 52 57 96 63 98 11 4 248 -646 239 -656 -3 -3 -47 36
-98 87 -51 51 -96 92 -100 92 -4 0 -25 11 -47 25 -22 14 -77 42 -124 64 l-84
39 -27 -24 c-16 -13 -32 -24 -37 -24 -5 0 -6 -4 -3 -10 3 -5 0 -8 -7 -5 -20 8
-71 -44 -59 -59 8 -9 7 -13 -4 -13 -8 0 -15 6 -15 13 0 7 -8 10 -18 7 -21 -5
-22 -27 -3 -61 8 -16 18 -21 29 -17 9 3 13 3 9 -1 -9 -10 30 -37 43 -29 5 3
14 -4 20 -15 8 -14 17 -19 28 -15 9 3 13 3 9 -1 -9 -9 43 -45 55 -38 4 3 8 0
8 -5 0 -25 27 -7 112 74 49 47 95 85 101 85 7 0 55 -42 106 -94 69 -70 92 -99
87 -111 -5 -15 -15 -16 -54 -11 -53 6 -535 18 -512 11 8 -2 138 -9 288 -16
187 -8 271 -16 269 -23 -4 -13 -142 -100 -241 -152 -47 -25 -64 -39 -55 -44
16 -11 25 -6 181 97 70 45 130 83 134 83 13 0 -8 -54 -82 -211 -42 -88 -73
-163 -70 -166 3 -3 8 3 12 13 20 60 160 334 169 331 6 -2 11 -88 13 -244 l2
-241 -40 -7 c-27 -5 -49 -2 -70 8 -17 9 -28 11 -25 6 4 -5 -1 -9 -9 -9 -31 0
-25 -22 29 -116 l56 -96 -53 -57 c-30 -31 -71 -77 -92 -104 l-39 -48 19 -35
c10 -20 25 -38 32 -41 6 -3 12 -13 13 -22 0 -10 2 -11 6 -3 7 18 29 15 139
-18 115 -35 126 -36 117 -13 -4 9 -2 14 3 10 6 -3 23 23 38 59 16 35 32 64 36
64 5 0 11 14 15 30 4 17 11 30 16 30 14 0 11 25 -17 142 -14 60 -24 111 -22
114 3 2 78 -1 169 -7 119 -8 167 -15 175 -25 17 -21 61 -17 74 6 12 22 -2 59
-23 62 -7 0 -17 2 -24 2 -7 1 -98 109 -204 241 -257 321 -269 338 -269 368 0
18 -9 31 -29 43 -22 13 -35 35 -57 98 -15 45 -69 196 -120 336 -84 232 -91
257 -77 272 18 21 10 66 -13 75 -9 3 -28 2 -43 -4 -20 -7 -39 -5 -81 10 -30
11 -199 73 -375 138 l-320 117 -11 66 c-6 37 -13 68 -15 70 -2 2 -37 6 -77 10
l-72 6 -28 -40 c-15 -21 -31 -39 -36 -40 -7 0 -275 118 -284 125 -2 2 2 12 10
24 11 17 9 24 -8 48 -29 39 -67 41 -101 7 l-27 -27 -66 18 c-163 45 -256 67
-215 49z m688 -322 c5 -25 18 -49 42 -72 31 -30 38 -33 55 -22 26 16 63 16 55
0 -4 -7 14 8 38 35 25 26 49 47 54 47 12 0 668 -243 713 -263 l35 -17 -40 3
c-109 9 -891 90 -894 94 -3 2 7 16 22 31 24 25 25 28 8 29 -10 1 -33 -14 -52
-33 -18 -19 -39 -34 -45 -34 -11 0 -134 161 -134 176 0 5 120 64 131 64 4 0 9
-17 12 -38z m-129 -68 c5 -14 4 -15 -9 -4 -17 14 -19 20 -6 20 5 0 12 -7 15
-16z m1484 -1071 c44 -39 452 -565 446 -575 -8 -13 -302 -2 -340 12 -16 6 -24
18 -26 42 -3 30 -6 33 -34 30 -17 -2 -43 2 -57 7 l-27 11 0 245 c0 136 4 245
9 245 5 0 18 -8 29 -17z m-28 -626 c0 -2 -12 -14 -27 -28 l-28 -24 24 28 c23
25 31 32 31 24z m-69 -34 c-12 -20 -14 -14 -5 12 4 9 9 14 11 11 3 -2 0 -13
-6 -23z"/>
<path d="M4514 8561 c-58 -43 -217 -208 -207 -214 14 -9 183 -31 188 -25 5 4
62 192 76 247 7 25 -17 22 -57 -8z"/>
<path d="M3263 8563 c-24 -5 -29 -19 -15 -40 4 -7 100 -56 212 -109 113 -53
211 -101 218 -106 25 -21 14 -57 -26 -82 -46 -29 -218 -116 -230 -116 -4 0
-25 29 -47 65 -22 36 -44 65 -49 65 -5 0 -1 -10 7 -22 51 -72 69 -111 62 -136
-5 -20 -8 -23 -15 -12 -7 12 -30 12 -157 -3 -197 -24 -223 -28 -223 -37 0 -11
21 -18 135 -47 55 -14 113 -32 129 -40 28 -15 30 -14 70 28 37 39 37 40 4 10
l-37 -34 -83 26 c-46 14 -103 31 -127 37 -23 6 -41 13 -40 15 2 2 73 13 158
26 149 21 155 21 168 3 10 -13 13 -14 13 -3 1 8 11 2 27 -16 l25 -30 -21 36
-21 36 150 77 c83 42 155 76 161 76 13 0 -26 -75 -72 -137 -22 -29 -36 -53
-31 -53 14 0 56 58 98 136 21 38 39 71 41 74 2 2 15 -9 29 -25 24 -29 25 -29
8 -2 -15 25 -15 29 0 51 14 23 14 26 -1 41 -12 13 -26 15 -56 11 -36 -6 -59 2
-216 76 -196 92 -263 128 -241 128 8 0 82 -9 164 -20 81 -11 160 -19 175 -19
30 1 -86 20 -237 39 -96 12 -116 21 -67 33 l20 5 -20 -1 c-11 0 -30 -2 -42 -4z
m482 -273 c3 -5 2 -10 -4 -10 -5 0 -13 5 -16 10 -3 6 -2 10 4 10 5 0 13 -4 16
-10z"/>
<path d="M6464 8559 c-3 -6 -2 -15 3 -20 5 -5 9 -1 9 11 0 23 -2 24 -12 9z"/>
<path d="M6528 8495 c-4 -4 -1 -16 5 -26 10 -17 6 -24 -33 -59 -25 -22 -93
-74 -152 -116 -104 -74 -107 -78 -117 -126 -6 -27 -11 -57 -11 -67 0 -10 -7
-24 -15 -31 -14 -11 -12 -15 15 -31 16 -10 30 -24 30 -30 0 -6 -27 -39 -61
-74 -34 -35 -58 -68 -55 -74 4 -5 1 -13 -5 -17 -8 -5 -9 -3 -4 7 5 8 4 10 0 6
-12 -11 -15 -37 -4 -37 8 0 82 85 125 144 19 27 23 28 55 17 66 -22 69 -29
115 -223 23 -101 47 -195 53 -210 14 -37 -6 -48 -31 -17 -16 20 -18 21 -9 3 9
-19 8 -21 -14 -16 -26 4 -143 -14 -162 -26 -19 -12 170 -5 200 7 16 6 34 8 40
4 7 -3 9 -3 5 2 -4 4 0 14 10 21 15 12 15 13 -4 8 -19 -5 -23 0 -33 43 -6 26
-26 117 -46 202 -19 85 -35 160 -35 166 0 7 27 29 60 49 l60 37 33 -22 c17
-13 79 -58 136 -101 57 -44 106 -77 109 -74 3 4 -1 6 -8 6 -7 0 -10 3 -7 6 5
5 -134 121 -223 186 -18 13 -33 87 -21 105 3 6 78 22 166 37 192 33 196 33
252 42 24 3 42 8 40 11 -6 5 -132 -12 -307 -42 -88 -15 -148 -21 -153 -16 -6
6 -12 52 -15 104 -4 84 -2 100 18 141 17 34 21 51 14 66 -5 12 -12 18 -16 15z"/>
<path d="M3658 8483 c7 -3 16 -2 19 1 4 3 -2 6 -13 5 -11 0 -14 -3 -6 -6z"/>
<path d="M2830 8437 c0 -8 6 -14 14 -14 8 0 12 6 9 14 -3 7 -9 13 -14 13 -5 0
-9 -6 -9 -13z"/>
<path d="M2816 8407 c3 -10 9 -15 12 -12 3 3 0 11 -7 18 -10 9 -11 8 -5 -6z"/>
<path d="M2840 8385 c-7 -9 -11 -18 -8 -20 3 -3 11 1 18 10 7 9 11 18 8 20 -3
3 -11 -1 -18 -10z"/>
<path d="M3000 8388 c14 -6 27 -13 29 -14 2 -2 -16 -25 -39 -52 -32 -38 -47
-49 -66 -47 -30 3 -39 11 -25 20 6 3 11 0 11 -7 0 -10 2 -10 9 1 11 17 -16 64
-31 55 -5 -3 -17 0 -26 8 -15 12 -16 11 -3 -5 13 -16 13 -20 0 -28 -10 -6 -11
-9 -1 -9 7 0 11 -4 8 -9 -5 -7 11 -68 20 -80 2 -2 14 10 28 25 14 16 26 24 26
18 0 -6 -11 -22 -24 -35 l-23 -24 28 -70 c33 -82 35 -103 12 -122 -10 -8 -1
-5 20 6 86 48 107 63 101 73 -4 7 -2 8 5 4 13 -9 44 12 36 24 -3 4 3 7 12 6
10 0 18 6 18 14 1 8 7 14 13 12 21 -4 83 48 74 63 -24 43 -146 163 -170 168
-15 3 -36 8 -47 12 -11 3 -9 0 5 -7z m-90 -72 c14 -18 14 -19 -8 -7 -12 7 -20
17 -16 22 3 6 7 9 8 7 1 -2 8 -12 16 -22z"/>
<path d="M2973 8364 c3 -4 2 -16 -4 -28 -10 -20 -10 -20 5 -2 19 24 20 36 4
36 -6 0 -8 -3 -5 -6z"/>
<path d="M5890 8293 c0 -5 10 -18 23 -29 l22 -19 -20 25 c-11 14 -21 27 -22
29 -2 2 -3 0 -3 -6z"/>
<path d="M3267 8279 c7 -7 15 -10 18 -7 3 3 -2 9 -12 12 -14 6 -15 5 -6 -5z"/>
<path d="M7028 8233 c7 -3 16 -2 19 1 4 3 -2 6 -13 5 -11 0 -14 -3 -6 -6z"/>
<path d="M7283 8175 c0 -22 2 -30 4 -17 2 12 2 30 0 40 -3 9 -5 -1 -4 -23z"/>
<path d="M3810 8177 c0 -2 15 -16 33 -33 l32 -29 -29 33 c-28 30 -36 37 -36
29z"/>
<path d="M7273 8095 c0 -22 2 -30 4 -17 2 12 2 30 0 40 -3 9 -5 -1 -4 -23z"/>
<path d="M4070 8075 c0 -5 5 -17 10 -25 5 -8 10 -10 10 -5 0 6 -5 17 -10 25
-5 8 -10 11 -10 5z"/>
<path d="M3920 8046 c0 -2 8 -10 18 -17 15 -13 16 -12 3 4 -13 16 -21 21 -21
13z"/>
<path d="M7241 7887 c-25 -186 -30 -209 -42 -201 -16 10 -49 -17 -49 -39 1
-12 14 -37 29 -55 23 -27 30 -30 35 -17 5 13 10 14 28 4 22 -12 23 -11 5 8
-10 11 -15 27 -11 37 4 12 1 16 -15 16 -12 0 -21 5 -21 11 0 6 7 8 15 5 51
-21 51 -21 31 2 -19 22 -19 25 3 203 13 99 21 183 18 185 -2 2 -14 -70 -26
-159z"/>
<path d="M7490 8026 c0 -2 8 -10 18 -17 15 -13 16 -12 3 4 -13 16 -21 21 -21
13z"/>
<path d="M3980 7975 c13 -14 26 -25 28 -25 3 0 -5 11 -18 25 -13 14 -26 25
-28 25 -3 0 5 -11 18 -25z"/>
<path d="M4110 7965 c0 -5 5 -17 10 -25 5 -8 10 -10 10 -5 0 6 -5 17 -10 25
-5 8 -10 11 -10 5z"/>
<path d="M3031 7934 c0 -11 3 -14 6 -6 3 7 2 16 -1 19 -3 4 -6 -2 -5 -13z"/>
<path d="M4056 7889 c27 -31 51 -55 54 -52 2 2 -20 27 -50 56 l-53 52 49 -56z"/>
<path d="M2636 7885 c-97 -40 -133 -61 -122 -73 4 -4 217 82 256 104 l25 13
-25 0 c-14 1 -74 -20 -134 -44z"/>
<path d="M3011 7804 c0 -11 3 -14 6 -6 3 7 2 16 -1 19 -3 4 -6 -2 -5 -13z"/>
<path d="M4687 7774 c-31 -19 -57 -37 -57 -39 0 -8 36 9 61 29 15 12 35 26 45
33 11 6 17 12 14 12 -3 1 -31 -15 -63 -35z"/>
<path d="M2331 7761 c-10 -7 -7 -9 12 -8 14 1 23 5 20 10 -6 9 -15 9 -32 -2z"/>
<path d="M2296 7738 c5 -8 2 -9 -9 -5 -22 8 -49 -2 -40 -16 4 -6 0 -8 -8 -5
-22 8 -125 -37 -108 -47 7 -5 14 -4 17 3 2 7 8 10 13 6 5 -3 9 0 9 6 0 6 5 8
10 5 6 -3 10 -3 10 2 0 4 10 9 23 10 12 0 42 10 66 20 35 15 41 21 27 26 -11
5 -15 3 -10 -5z"/>
<path d="M4541 7734 c0 -11 3 -14 6 -6 3 7 2 16 -1 19 -3 4 -6 -2 -5 -13z"/>
<path d="M8085 7730 c-3 -5 -1 -10 4 -10 6 0 11 5 11 10 0 6 -2 10 -4 10 -3 0
-8 -4 -11 -10z"/>
<path d="M3883 7713 c9 -2 23 -2 30 0 6 3 -1 5 -18 5 -16 0 -22 -2 -12 -5z"/>
<path d="M8179 7707 c6 -8 7 -18 3 -23 -4 -5 -3 -6 2 -1 5 4 19 -1 30 -10 12
-10 8 -3 -8 15 -29 31 -50 46 -27 19z"/>
<path d="M3828 7703 c7 -3 16 -2 19 1 4 3 -2 6 -13 5 -11 0 -14 -3 -6 -6z"/>
<path d="M4488 7703 c6 -2 18 -2 25 0 6 3 1 5 -13 5 -14 0 -19 -2 -12 -5z"/>
<path d="M6843 7693 c0 -9 4 -10 14 -2 7 6 13 12 13 14 0 1 -6 2 -13 2 -8 0
-14 -6 -14 -14z"/>
<path d="M3778 7693 c6 -2 18 -2 25 0 6 3 1 5 -13 5 -14 0 -19 -2 -12 -5z"/>
<path d="M3718 7683 c6 -2 18 -2 25 0 6 3 1 5 -13 5 -14 0 -19 -2 -12 -5z"/>
<path d="M3658 7673 c6 -2 18 -2 25 0 6 3 1 5 -13 5 -14 0 -19 -2 -12 -5z"/>
<path d="M4200 7677 c0 -2 15 -16 33 -33 l32 -29 -29 33 c-28 30 -36 37 -36
29z"/>
<path d="M2095 7660 c3 -5 11 -10 16 -10 6 0 7 5 4 10 -3 6 -11 10 -16 10 -6
0 -7 -4 -4 -10z"/>
<path d="M4645 7644 c81 -30 195 -62 190 -54 -6 9 -195 70 -216 69 -8 0 4 -7
26 -15z"/>
<path d="M6752 7624 c-28 -19 -28 -38 0 -64 23 -21 54 -28 42 -8 -4 7 -3 8 4
4 22 -13 34 5 17 24 -9 10 -17 27 -18 39 -2 25 -15 27 -45 5z m1 -24 c-3 -12
-8 -19 -11 -16 -5 6 5 36 12 36 2 0 2 -9 -1 -20z"/>
<path d="M5574 7602 c-20 -16 -20 -21 -9 -67 l12 -50 7 50 c4 28 9 58 11 68 4
21 5 21 -21 -1z"/>
<path d="M8043 7599 c-1 -12 4 -19 15 -18 11 0 12 2 4 6 -6 2 -10 9 -7 13 3 5
2 11 -3 14 -4 2 -9 -4 -9 -15z"/>
<path d="M6680 7600 c-9 -6 -10 -10 -3 -10 6 0 15 5 18 10 8 12 4 12 -15 0z"/>
<path d="M6620 7580 c-18 -12 -2 -12 25 0 13 6 15 9 5 9 -8 0 -22 -4 -30 -9z"/>
<path d="M4940 7556 c0 -9 5 -16 10 -16 6 0 10 4 10 9 0 6 -4 13 -10 16 -5 3
-10 -1 -10 -9z"/>
<path d="M7305 7534 c22 -21 87 -80 145 -131 85 -75 106 -99 110 -125 4 -25
11 -34 28 -36 19 -3 22 -10 23 -45 l1 -42 11 40 c5 22 16 46 24 53 7 7 13 21
13 30 0 21 84 46 145 44 l40 -1 -32 14 c-29 12 -39 12 -86 -4 -46 -16 -58 -17
-91 -6 -20 7 -44 11 -54 9 -11 -3 -54 27 -119 84 -56 48 -124 103 -150 122
l-48 33 40 -39z"/>
<path d="M8030 7555 c0 -9 9 -15 23 -14 17 1 18 2 4 6 -9 2 -15 9 -12 14 4 5
1 9 -4 9 -6 0 -11 -7 -11 -15z"/>
<path d="M6540 7550 c-8 -5 -10 -10 -5 -10 6 0 17 5 25 10 8 5 11 10 5 10 -5
0 -17 -5 -25 -10z"/>
<path d="M3745 7530 c-3 -6 1 -7 9 -4 18 7 21 14 7 14 -6 0 -13 -4 -16 -10z"/>
<path d="M5461 7523 c-6 -10 -11 -14 -11 -10 0 5 -14 -1 -30 -13 -17 -12 -27
-26 -23 -32 4 -7 0 -9 -10 -5 -9 3 -19 2 -21 -2 -9 -14 6 -21 25 -11 12 7 19
6 22 -3 4 -9 6 -9 6 1 1 6 8 12 17 12 12 0 15 7 11 27 -4 24 -4 26 8 10 7 -9
10 -28 8 -41 -3 -13 0 -32 5 -43 12 -21 66 -27 58 -6 -3 7 -1 13 4 13 9 0 14
-22 11 -42 0 -5 8 -8 19 -8 11 0 20 5 20 10 0 6 -5 10 -11 10 -5 0 -7 5 -3 12
4 7 3 8 -4 4 -7 -4 -12 -2 -12 4 0 23 -61 100 -73 93 -8 -4 -7 -1 1 9 8 10 9
19 3 22 -5 4 -14 -2 -20 -11z"/>
<path d="M7212 7510 c0 -14 2 -19 5 -12 2 6 2 18 0 25 -3 6 -5 1 -5 -13z"/>
<path d="M8046 7501 c-7 -11 22 -36 31 -28 3 4 -2 9 -11 13 -9 3 -13 10 -10
15 3 5 3 9 0 9 -3 0 -7 -4 -10 -9z"/>
<path d="M6556 7491 c-4 -5 3 -7 14 -4 23 6 26 13 6 13 -8 0 -17 -4 -20 -9z"/>
<path d="M6438 7484 c-10 -10 41 -76 73 -96 29 -17 29 -17 20 0 -5 10 -6 24
-1 32 4 7 6 20 3 27 -4 11 -8 12 -13 3 -5 -8 -10 -2 -14 15 -5 18 -12 25 -24
23 -9 -2 -16 -10 -14 -17 1 -7 -2 -10 -8 -6 -6 3 -8 11 -5 16 7 10 -8 13 -17
3z"/>
<path d="M5423 7436 c-10 -11 -9 -15 1 -19 16 -7 26 1 26 20 0 17 -12 16 -27
-1z"/>
<path d="M5292 7350 c0 -14 2 -19 5 -12 2 6 2 18 0 25 -3 6 -5 1 -5 -13z"/>
<path d="M6540 7340 c1 -16 23 -31 100 -65 47 -21 91 -42 98 -48 6 -5 12 -6
12 -1 0 5 -38 31 -85 57 -47 27 -85 52 -85 57 0 5 -9 8 -20 7 -11 -1 -20 -4
-20 -7z"/>
<path d="M6590 7340 c0 -11 76 -33 93 -27 13 5 -57 37 -79 37 -8 0 -14 -4 -14
-10z"/>
<path d="M7958 7313 c28 -2 76 -2 105 0 28 2 5 3 -53 3 -58 0 -81 -1 -52 -3z"/>
<path d="M2069 7281 c-17 -14 -19 -18 -6 -18 9 0 14 4 11 9 -5 8 9 12 34 9 17
-2 15 6 -3 12 -7 3 -24 -2 -36 -12z"/>
<path d="M2036 7247 c3 -10 9 -15 12 -12 3 3 0 11 -7 18 -10 9 -11 8 -5 -6z"/>
<path d="M2022 7210 c0 -19 2 -27 5 -17 2 9 2 25 0 35 -3 9 -5 1 -5 -18z"/>
<path d="M6410 7180 c6 -11 13 -20 16 -20 2 0 0 9 -6 20 -6 11 -13 20 -16 20
-2 0 0 -9 6 -20z"/>
<path d="M6961 7186 c16 -16 230 -118 236 -113 9 9 12 8 -115 66 -103 46 -133
58 -121 47z"/>
<path d="M2023 7120 c0 -30 2 -49 5 -42 2 6 9 9 15 5 8 -4 7 -1 -1 9 -7 9 -9
18 -4 20 5 1 3 16 -4 33 -12 29 -12 28 -11 -25z"/>
<path d="M6445 7126 c10 -14 19 -26 22 -26 7 0 -17 39 -28 46 -6 3 -3 -5 6
-20z"/>
<path d="M2120 7089 c-44 -27 -115 -75 -156 -106 -42 -32 -100 -74 -128 -93
-130 -87 -247 -175 -238 -178 6 -2 67 38 136 88 186 133 285 200 296 200 19 0
80 -63 81 -84 0 -18 1 -19 7 -3 7 16 12 14 48 -17 31 -26 44 -32 57 -24 10 5
15 14 11 19 -3 5 0 8 8 7 7 -2 12 3 10 10 -1 8 2 11 7 7 12 -7 33 29 23 40 -4
5 -1 5 6 1 6 -4 13 -2 13 3 1 6 2 16 3 23 2 19 45 19 68 -1 13 -10 56 -47 96
-81 105 -90 88 -60 -22 40 -63 57 -91 88 -85 96 5 6 5 15 1 19 -4 5 -2 5 4 2
7 -4 15 0 18 8 3 9 0 17 -7 19 -6 2 -49 15 -94 29 l-82 24 -81 -48z"/>
<path d="M7611 7104 c0 -11 3 -14 6 -6 3 7 2 16 -1 19 -3 4 -6 -2 -5 -13z"/>
<path d="M4548 7103 c6 -2 18 -2 25 0 6 3 1 5 -13 5 -14 0 -19 -2 -12 -5z"/>
<path d="M8083 7087 c-1 -11 -1 -18 0 -16 2 2 8 11 15 20 9 12 9 16 -1 16 -7
0 -14 -9 -14 -20z"/>
<path d="M2405 7090 c-3 -6 -3 -10 2 -9 15 4 128 -13 145 -22 10 -5 19 -28 23
-58 4 -28 13 -55 21 -62 8 -6 14 -20 14 -30 0 -21 79 -49 138 -49 l35 0 -7 41
c-9 55 -42 96 -91 110 -22 7 -52 21 -67 31 -16 11 -32 16 -38 13 -5 -3 -10 0
-10 9 0 8 6 16 13 19 6 2 -4 4 -23 4 -19 0 -60 3 -92 7 -37 5 -58 4 -63 -4z"/>
<path d="M2861 7084 c0 -11 3 -14 6 -6 3 7 2 16 -1 19 -3 4 -6 -2 -5 -13z"/>
<path d="M4498 7093 c7 -3 16 -2 19 1 4 3 -2 6 -13 5 -11 0 -14 -3 -6 -6z"/>
<path d="M4438 7083 c7 -3 16 -2 19 1 4 3 -2 6 -13 5 -11 0 -14 -3 -6 -6z"/>
<path d="M2686 7035 c-3 -8 -1 -15 4 -15 6 0 10 7 10 15 0 8 -2 15 -4 15 -2 0
-6 -7 -10 -15z"/>
<path d="M2648 7033 c7 -3 16 -2 19 1 4 3 -2 6 -13 5 -11 0 -14 -3 -6 -6z"/>
<path d="M7398 7014 c16 -31 79 -70 70 -43 -2 6 -7 10 -12 9 -4 -1 -22 11 -38
27 -24 22 -28 24 -20 7z"/>
<path d="M8030 7011 c0 -6 4 -13 10 -16 6 -3 7 1 4 9 -7 18 -14 21 -14 7z"/>
<path d="M7945 6903 c-44 -47 -97 -97 -117 -112 -38 -26 -47 -41 -27 -41 15 0
194 161 194 175 1 18 32 55 40 47 5 -4 5 -1 1 6 -4 6 -8 12 -9 11 -1 0 -38
-39 -82 -86z"/>
<path d="M7408 6918 c-9 -5 -6 -7 9 -5 12 2 25 6 28 8 8 9 -23 6 -37 -3z"/>
<path d="M7527 6919 c-9 -6 -15 -14 -12 -20 4 -5 -4 -9 -16 -9 -12 0 -30 -7
-40 -16 -16 -14 -20 -15 -33 -1 -8 8 -12 17 -9 21 4 3 -7 5 -23 5 -16 -1 -22
-3 -12 -6 19 -5 31 -30 21 -45 -4 -7 -1 -8 7 -3 8 5 11 4 7 -2 -4 -6 0 -13 8
-16 9 -4 12 -1 8 9 -3 7 0 14 7 14 7 0 10 -8 8 -18 -6 -20 23 -45 38 -34 5 4
18 24 28 45 11 20 22 37 26 37 23 0 171 -128 202 -175 11 -16 17 -22 14 -12
-3 11 -9 31 -12 45 -4 15 -13 34 -20 42 -7 9 -27 43 -43 75 -19 38 -29 51 -28
35 2 -14 10 -40 20 -57 22 -41 10 -42 -28 -3 -15 16 -31 27 -35 25 -4 -2 -22
7 -40 20 -38 28 -29 35 10 8 14 -9 19 -10 13 -3 -18 20 -16 30 5 24 14 -5 14
-4 2 4 -8 6 -18 8 -22 5 -5 -2 -14 0 -21 5 -8 7 -18 7 -30 1z"/>
<path d="M6917 6836 c-34 -104 -47 -117 -90 -92 l-32 18 20 -22 c22 -24 23
-81 4 -265 -11 -104 -17 -122 -56 -169 -27 -33 -25 -37 35 -56 41 -13 43 -13
75 16 l32 29 -30 -33 c-29 -32 -29 -33 -8 -38 l22 -6 -20 -40 c-27 -53 -121
-299 -116 -304 5 -5 74 154 82 191 9 34 65 145 74 145 3 0 12 -4 19 -8 10 -7
3 -32 -28 -111 -23 -57 -39 -105 -37 -107 2 -2 20 38 40 89 52 129 44 123 113
91 78 -35 174 -64 174 -53 0 5 -4 9 -10 9 -5 0 -10 5 -10 11 0 8 5 8 15 -1 12
-10 18 -10 30 0 10 8 15 9 15 2 0 -6 -7 -15 -16 -20 -15 -8 -19 -20 -23 -73 0
-10 -72 -64 -171 -128 -93 -61 -172 -116 -175 -121 -4 -6 -10 -8 -14 -5 -5 2
-6 -7 -3 -21 5 -30 27 -26 27 5 0 17 24 36 100 84 55 34 126 82 158 106 32 23
60 41 63 38 2 -2 -5 -46 -15 -98 -25 -121 -58 -327 -65 -404 -8 -91 1 -50 34
166 17 108 42 241 55 295 14 55 25 110 26 124 0 23 1 23 8 5 7 -16 10 -10 16
28 4 26 9 47 12 47 18 0 113 -33 113 -39 0 -5 10 -6 23 -4 13 3 50 -4 82 -15
33 -11 76 -23 95 -26 19 -3 -44 20 -140 52 l-175 59 -6 79 c-7 93 -17 134 -33
135 -6 0 -2 4 9 9 19 8 19 9 -2 9 l-23 1 20 53 c11 28 20 64 20 78 0 34 7 40
37 28 13 -5 22 -5 19 0 -8 12 17 21 73 27 25 3 50 8 56 12 5 3 23 6 40 5 l30
-2 -30 8 c-16 4 -34 4 -40 0 -18 -12 -143 -21 -149 -10 -7 11 -35 8 -68 -10
-53 -28 -94 -68 -135 -131 -23 -38 -54 -78 -68 -90 l-25 -22 26 -28 c15 -15
32 -24 38 -21 6 3 0 -6 -13 -20 -14 -15 -27 -27 -30 -27 -3 0 2 8 12 17 16 16
15 19 -15 51 -26 26 -30 35 -19 42 8 4 16 14 17 22 2 7 8 31 13 53 6 22 11 80
11 129 0 77 2 87 13 72 13 -18 15 -18 40 -1 24 15 40 34 18 21 -5 -3 -19 2
-31 12 -21 17 -21 18 -2 35 11 10 58 38 106 62 48 25 78 45 68 45 -11 0 -64
-23 -118 -51 -84 -43 -107 -51 -152 -51 -30 0 -56 2 -58 5 -3 2 11 42 31 88
37 88 40 99 27 99 -4 0 -20 -38 -35 -84z m64 -281 c12 -16 -15 8 -60 55 -44
47 -81 87 -81 90 0 9 120 -114 141 -145z m220 12 c-10 -9 -11 -8 -5 6 3 10 9
15 12 12 3 -3 0 -11 -7 -18z m-101 -181 c0 -2 -8 -10 -17 -17 -16 -13 -17 -12
-4 4 13 16 21 21 21 13z m-150 -39 c0 -2 -12 -14 -27 -28 l-28 -24 24 28 c23
25 31 32 31 24z m40 -90 c0 -2 -10 -12 -22 -23 l-23 -19 19 23 c18 21 26 27
26 19z"/>
<path d="M8147 6845 c-49 -30 -93 -52 -99 -49 -6 4 -8 2 -5 -3 4 -6 -12 -23
-35 -38 -49 -33 -53 -29 102 -83 152 -53 148 -51 154 -70 7 -25 -4 119 -18
216 l-11 83 -88 -56z"/>
<path d="M2101 6874 c0 -11 3 -14 6 -6 3 7 2 16 -1 19 -3 4 -6 -2 -5 -13z"/>
<path d="M7284 6882 c-17 -11 -34 -48 -34 -74 1 -30 26 -65 33 -46 3 8 6 5 6
-6 1 -19 1 -19 15 -1 11 16 16 17 29 6 11 -8 31 -10 64 -6 76 10 93 15 93 27
0 6 -3 9 -6 5 -7 -7 -76 35 -122 74 -33 29 -57 35 -78 21z"/>
<path d="M3976 6857 c3 -10 9 -15 12 -12 3 3 0 11 -7 18 -10 9 -11 8 -5 -6z"/>
<path d="M7992 6840 c0 -14 2 -19 5 -12 2 6 2 18 0 25 -3 6 -5 1 -5 -13z"/>
<path d="M6680 6846 c0 -2 8 -10 18 -17 15 -13 16 -12 3 4 -13 16 -21 21 -21
13z"/>
<path d="M4435 6819 c-4 -6 -13 -8 -21 -5 -12 4 -12 2 -4 -14 7 -13 16 -17 27
-13 11 5 13 8 5 11 -10 3 -10 7 -1 18 6 8 9 14 6 14 -3 0 -9 -5 -12 -11z"/>
<path d="M2081 6804 c0 -11 3 -14 6 -6 3 7 2 16 -1 19 -3 4 -6 -2 -5 -13z"/>
<path d="M5051 6794 c0 -11 3 -14 6 -6 3 7 2 16 -1 19 -3 4 -6 -2 -5 -13z"/>
<path d="M4963 6789 c-7 -7 -36 -20 -65 -30 -39 -14 -46 -18 -26 -19 15 0 38
-4 52 -9 22 -9 24 -8 21 11 -3 12 4 27 18 39 12 10 20 18 17 19 -4 0 -11 -5
-17 -11z"/>
<path d="M6765 6780 c10 -11 20 -20 23 -20 3 0 -3 9 -13 20 -10 11 -20 20 -23
20 -3 0 3 -9 13 -20z"/>
<path d="M2061 6734 c0 -11 3 -14 6 -6 3 7 2 16 -1 19 -3 4 -6 -2 -5 -13z"/>
<path d="M7140 6741 c0 -6 4 -13 10 -16 6 -3 7 1 4 9 -7 18 -14 21 -14 7z"/>
<path d="M4728 6733 c12 -2 32 -2 45 0 12 2 2 4 -23 4 -25 0 -35 -2 -22 -4z"/>
<path d="M7241 6651 c-8 -6 -9 -11 -3 -15 6 -3 14 -1 17 5 9 14 2 20 -14 10z"/>
<path d="M7508 6633 c6 -2 18 -2 25 0 6 3 1 5 -13 5 -14 0 -19 -2 -12 -5z"/>
<path d="M7840 6595 c0 -6 48 -77 108 -157 59 -81 112 -155 119 -165 23 -34 2
18 -24 60 -15 24 -19 37 -11 38 7 0 3 4 -10 9 -12 5 -50 48 -85 96 -79 111
-96 131 -97 119z"/>
<path d="M8271 6564 c0 -11 3 -14 6 -6 3 7 2 16 -1 19 -3 4 -6 -2 -5 -13z"/>
<path d="M1213 6563 c4 -6 3 -13 -1 -15 -5 -1 0 -73 11 -159 l20 -156 151 -8
c83 -4 176 -6 206 -5 30 1 61 3 68 3 13 0 17 13 4 19 -7 3 -59 80 -141 211
-28 43 -49 67 -61 67 -10 0 -27 3 -37 7 -16 6 -16 5 -4 -10 12 -15 12 -17 -4
-11 -12 5 -16 4 -11 -4 3 -6 1 -14 -5 -18 -8 -5 -9 -3 -5 5 5 8 0 15 -15 19
l-24 6 25 8 c15 4 -1 6 -40 3 -40 -2 -54 -1 -35 4 27 6 25 7 -24 14 -29 3 -60
12 -69 19 -10 8 -13 9 -9 1z m257 -73 c0 -5 -5 -10 -11 -10 -5 0 -7 5 -4 10 3
6 8 10 11 10 2 0 4 -4 4 -10z m-36 -45 c-9 -14 -18 -25 -21 -25 -5 0 5 18 20
38 17 22 18 13 1 -13z m-59 -64 c3 -5 0 -13 -6 -17 -7 -4 -9 -3 -5 4 3 5 0 13
-6 15 -9 4 -10 6 -1 6 6 1 14 -3 18 -8z"/>
<path d="M8281 6524 c0 -11 3 -14 6 -6 3 7 2 16 -1 19 -3 4 -6 -2 -5 -13z"/>
<path d="M6010 6510 c8 -5 20 -10 25 -10 6 0 3 5 -5 10 -8 5 -19 10 -25 10 -5
0 -3 -5 5 -10z"/>
<path d="M8291 6474 c0 -11 3 -14 6 -6 3 7 2 16 -1 19 -3 4 -6 -2 -5 -13z"/>
<path d="M4110 6471 c-20 -12 -238 -45 -495 -76 -115 -13 -254 -30 -308 -37
-54 -6 -100 -15 -103 -20 -8 -12 10 -11 236 17 493 62 645 86 676 110 21 16
17 19 -6 6z"/>
<path d="M8300 6423 c0 -10 4 -24 9 -32 6 -9 8 -4 7 18 -1 32 -16 45 -16 14z"/>
<path d="M6118 6423 c7 -3 16 -2 19 1 4 3 -2 6 -13 5 -11 0 -14 -3 -6 -6z"/>
<path d="M4049 6393 c-13 -16 -12 -17 4 -4 9 7 17 15 17 17 0 8 -8 3 -21 -13z"/>
<path d="M8148 6403 c-21 -2 -38 -8 -38 -14 0 -12 17 -11 70 5 45 15 39 16
-32 9z"/>
<path d="M4198 6328 c-21 -31 -54 -99 -62 -124 -6 -19 -3 -21 36 -19 24 1 64
2 90 3 43 2 46 4 40 25 -8 30 -71 137 -81 137 -5 0 -15 -10 -23 -22z"/>
<path d="M8295 6341 c-6 -6 -50 -33 -100 -60 -49 -28 -84 -51 -77 -51 17 0
152 77 177 101 11 10 17 19 14 19 -3 0 -9 -4 -14 -9z"/>
<path d="M8303 6265 c0 -27 2 -38 4 -22 2 15 2 37 0 50 -2 12 -4 0 -4 -28z"/>
<path d="M2424 6290 c-26 -10 -36 -34 -28 -66 9 -36 74 -46 74 -12 0 6 -7 5
-17 -3 -16 -13 -17 -12 -4 4 17 21 31 22 31 2 0 -8 4 -15 9 -15 13 0 6 67 -9
85 -14 17 -25 18 -56 5z"/>
<path d="M6231 6264 c0 -11 3 -14 6 -6 3 7 2 16 -1 19 -3 4 -6 -2 -5 -13z"/>
<path d="M9133 6095 c127 -130 164 -175 142 -175 -3 0 -40 7 -81 16 -42 8 -78
13 -81 11 -2 -3 12 -8 31 -11 19 -4 58 -13 86 -22 42 -12 49 -18 40 -29 -6 -8
-25 -17 -42 -20 -19 -5 -26 -10 -19 -15 8 -4 -31 -43 -109 -110 -66 -57 -118
-105 -115 -108 5 -6 7 -5 154 118 177 149 176 148 126 20 -109 -277 -134 -344
-130 -348 3 -3 8 4 11 14 20 54 125 317 147 367 14 31 30 57 36 57 6 0 15 9
21 20 15 28 -2 55 -42 69 -18 7 -93 71 -177 153 l-146 143 148 -150z"/>
<path d="M6241 6214 c0 -11 3 -14 6 -6 3 7 2 16 -1 19 -3 4 -6 -2 -5 -13z"/>
<path d="M3170 6202 c0 -7 12 -29 27 -48 18 -25 29 -32 37 -24 7 7 -1 21 -27
48 -20 20 -37 31 -37 24z"/>
<path d="M3480 6200 c8 -5 20 -10 25 -10 6 0 3 5 -5 10 -8 5 -19 10 -25 10 -5
0 -3 -5 5 -10z"/>
<path d="M3714 6185 c8 -56 -5 -63 -75 -38 -35 13 -64 21 -67 19 -2 -2 24 -14
57 -27 34 -12 61 -26 61 -31 0 -18 -31 -19 -105 -3 -42 10 -78 15 -81 12 -2
-2 34 -12 81 -22 47 -10 85 -22 85 -27 0 -4 7 -8 16 -8 11 0 14 6 9 21 -6 19
-4 21 24 17 21 -3 31 0 31 9 0 7 5 13 10 13 17 0 11 18 -7 22 -9 2 -22 19 -30
38 -13 34 -13 34 -9 5z"/>
<path d="M8130 6196 c0 -11 30 -66 36 -66 2 0 -3 15 -12 33 -19 36 -24 44 -24
33z"/>
<path d="M3530 6180 c8 -5 20 -10 25 -10 6 0 3 5 -5 10 -8 5 -19 10 -25 10 -5
0 -3 -5 5 -10z"/>
<path d="M6252 6160 c0 -14 2 -19 5 -12 2 6 2 18 0 25 -3 6 -5 1 -5 -13z"/>
<path d="M1579 6153 c-2 -5 -83 -36 -179 -70 -96 -33 -225 -79 -287 -101 -89
-32 -113 -37 -117 -26 -7 17 -67 19 -84 2 -20 -20 -14 -65 10 -82 12 -9 29
-16 38 -16 8 0 34 -33 57 -73 23 -39 49 -81 58 -92 18 -21 2 8 -58 109 -35 57
-35 59 -20 92 9 18 23 36 32 40 32 13 447 157 504 174 31 10 57 15 57 12 0
-10 -243 -410 -322 -532 -23 -36 -24 -39 -5 -16 14 15 53 74 87 130 34 55 86
139 116 186 30 47 73 116 96 154 51 84 50 86 68 -135 7 -85 17 -161 22 -169 6
-10 8 -4 4 20 -10 65 -28 332 -23 336 6 7 37 -33 132 -170 64 -93 74 -111 63
-125 -11 -14 -11 -14 3 -3 14 11 23 5 64 -40 37 -41 40 -43 14 -10 -19 24 -41
54 -49 66 -8 13 -49 71 -90 130 -41 59 -75 115 -75 124 0 9 -5 17 -12 17 -6 0
-21 12 -33 28 -12 15 -27 27 -33 27 -7 0 -6 -4 3 -10 9 -6 10 -10 3 -10 -6 0
-18 9 -26 21 -8 11 -16 16 -18 12z"/>
<path d="M6609 6123 l-24 -28 28 24 c15 14 27 26 27 28 0 8 -8 1 -31 -24z"/>
<path d="M3393 6133 c9 -2 25 -2 35 0 9 3 1 5 -18 5 -19 0 -27 -2 -17 -5z"/>
<path d="M3458 6123 c6 -2 18 -2 25 0 6 3 1 5 -13 5 -14 0 -19 -2 -12 -5z"/>
<path d="M6261 6104 c0 -11 3 -14 6 -6 3 7 2 16 -1 19 -3 4 -6 -2 -5 -13z"/>
<path d="M8196 6065 c13 -31 24 -59 24 -64 0 -4 -52 -43 -115 -86 -63 -42
-115 -80 -115 -82 0 -3 10 1 23 9 12 8 60 38 107 67 47 29 92 57 102 64 13 9
27 1 77 -42 33 -29 71 -66 85 -81 13 -16 26 -27 28 -24 3 2 11 -2 18 -11 8
-10 9 -15 1 -15 -6 0 -11 -4 -11 -10 0 -6 6 -9 12 -7 7 1 14 -8 16 -20 2 -15
10 -23 23 -23 28 0 34 26 16 65 -13 26 -20 32 -40 28 -40 -8 -189 133 -233
220 -41 81 -52 88 -18 12z"/>
<path d="M8345 6096 c-29 -13 -29 -13 -5 -13 27 1 155 -21 180 -30 25 -10 28
-10 225 -51 222 -46 276 -54 293 -43 8 5 -16 13 -60 20 -40 6 -125 23 -188 36
-183 40 -250 53 -332 66 -42 7 -75 16 -72 21 7 11 -6 9 -41 -6z"/>
<path d="M7278 6075 c-26 -14 -49 -29 -52 -34 -3 -5 19 4 49 21 30 16 55 31
55 34 0 6 0 6 -52 -21z"/>
<path d="M6272 6060 c0 -14 2 -19 5 -12 2 6 2 18 0 25 -3 6 -5 1 -5 -13z"/>
<path d="M3755 6064 c6 -3 50 -20 100 -37 68 -24 93 -38 102 -57 7 -14 13 -19
13 -12 0 7 14 19 30 26 l31 12 -33 16 c-18 9 -71 23 -118 32 -47 9 -96 18
-110 21 -14 3 -20 3 -15 -1z"/>
<path d="M5836 6027 c3 -9 1 -31 -5 -47 l-10 -31 47 2 c26 1 56 -2 67 -8 11
-6 79 -30 150 -53 72 -24 137 -45 145 -48 11 -3 12 -2 5 6 -6 6 -80 34 -165
62 -91 30 -162 59 -172 71 -9 10 -22 19 -28 19 -7 0 -2 9 11 20 21 19 22 20 2
9 -17 -10 -25 -10 -37 1 -14 11 -16 10 -10 -3z"/>
<path d="M7618 6029 c-2 -8 4 -22 14 -31 21 -21 23 -13 4 21 -9 16 -14 19 -18
10z"/>
<path d="M1870 5986 c0 -3 9 -10 20 -16 11 -6 20 -8 20 -6 0 3 -9 10 -20 16
-11 6 -20 8 -20 6z"/>
<path d="M9050 5950 c-13 -9 -13 -10 0 -9 8 0 24 4 35 9 l20 9 -20 0 c-11 0
-27 -4 -35 -9z"/>
<path d="M1960 5936 c0 -3 9 -10 20 -16 11 -6 20 -8 20 -6 0 3 -9 10 -20 16
-11 6 -20 8 -20 6z"/>
<path d="M7525 5900 c-3 -5 -3 -10 2 -10 4 0 0 -5 -10 -11 -9 -6 -15 -14 -13
-18 3 -4 9 -63 15 -131 15 -168 16 -170 49 -170 15 0 91 -8 170 -17 124 -15
144 -15 155 -3 7 8 11 14 9 13 -8 -4 -27 22 -49 67 -27 55 -99 171 -115 185
-8 7 -9 6 -4 -3 4 -6 -8 -3 -26 7 -18 11 -60 30 -93 42 -67 24 -87 37 -79 50
3 5 3 9 0 9 -3 0 -8 -4 -11 -10z"/>
<path d="M6311 5874 c0 -11 3 -14 6 -6 3 7 2 16 -1 19 -3 4 -6 -2 -5 -13z"/>
<path d="M4755 5861 c11 -4 36 -11 55 -15 24 -4 29 -3 15 3 -11 4 -36 11 -55
15 -24 4 -29 3 -15 -3z"/>
<path d="M9153 5843 c9 -2 23 -2 30 0 6 3 -1 5 -18 5 -16 0 -22 -2 -12 -5z"/>
<path d="M4858 5833 c7 -3 16 -2 19 1 4 3 -2 6 -13 5 -11 0 -14 -3 -6 -6z"/>
<path d="M9108 5833 c7 -3 16 -2 19 1 4 3 -2 6 -13 5 -11 0 -14 -3 -6 -6z"/>
<path d="M2195 5797 c-16 -18 -57 -57 -90 -87 -73 -65 -44 -46 43 29 35 30 68
63 73 73 13 25 9 22 -26 -15z"/>
<path d="M9058 5823 c7 -3 16 -2 19 1 4 3 -2 6 -13 5 -11 0 -14 -3 -6 -6z"/>
<path d="M4958 5813 c7 -3 16 -2 19 1 4 3 -2 6 -13 5 -11 0 -14 -3 -6 -6z"/>
<path d="M6186 5811 c-3 -5 -18 -12 -33 -15 -53 -13 -236 -80 -226 -83 13 -5
263 83 277 97 7 7 6 10 -1 10 -7 0 -14 -4 -17 -9z"/>
<path d="M5028 5793 c7 -3 16 -2 19 1 4 3 -2 6 -13 5 -11 0 -14 -3 -6 -6z"/>
<path d="M5068 5783 c7 -3 16 -2 19 1 4 3 -2 6 -13 5 -11 0 -14 -3 -6 -6z"/>
<path d="M6560 5760 c8 -5 20 -10 25 -10 6 0 3 5 -5 10 -8 5 -19 10 -25 10 -5
0 -3 -5 5 -10z"/>
<path d="M5100 5726 c0 -19 6 -36 13 -39 6 -2 -22 -10 -63 -17 -41 -7 -84 -17
-95 -21 -15 -7 -13 -8 10 -4 17 3 54 9 83 14 l52 8 0 -124 c0 -141 -6 -136 90
-89 l45 23 0 92 c0 125 -4 135 -58 128 -37 -5 -39 -5 -14 5 19 7 26 15 23 25
-3 8 -6 19 -6 24 0 5 -18 9 -40 9 -39 0 -40 -1 -40 -34z m100 -125 c-29 -42
-36 -39 -8 3 13 19 24 33 26 31 3 -2 -6 -18 -18 -34z"/>
<path d="M1678 5708 c-8 -22 41 -348 51 -348 4 0 36 30 71 66 36 36 79 75 95
86 l30 20 -30 -27 c-108 -98 -190 -185 -202 -215 -31 -76 -118 -256 -130 -268
-6 -7 -32 -15 -58 -19 -68 -9 -63 -20 6 -13 33 3 64 3 69 0 7 -4 -11 -265 -30
-427 0 -2 -22 -3 -49 -3 -96 0 -111 -24 -20 -33 33 -3 62 -7 64 -9 2 -1 -3
-75 -11 -163 -7 -88 -13 -182 -12 -210 0 -27 7 18 14 100 23 257 25 275 34
270 4 -3 57 -14 117 -26 59 -11 138 -26 176 -33 37 -7 67 -10 67 -6 0 4 -75
22 -167 40 -93 18 -175 36 -183 40 -19 11 -18 11 125 40 61 11 142 30 180 40
39 11 96 27 128 36 31 8 57 19 57 24 0 4 -60 -8 -132 -26 -168 -43 -361 -85
-367 -78 -5 5 18 309 26 338 4 16 10 13 46 -20 l41 -39 -42 49 c-40 46 -54 86
-32 86 6 0 65 -27 132 -61 119 -60 288 -132 294 -126 2 2 -72 39 -164 82 -92
44 -187 91 -210 104 -42 23 -43 24 -25 41 10 10 91 41 181 69 90 29 165 57
168 64 2 7 -2 35 -11 62 -18 62 -20 99 -2 92 40 -16 47 -16 16 2 -33 18 -37
25 -51 95 -10 51 -12 80 -5 92 8 15 0 27 -45 68 -75 70 -205 159 -210 144z
m122 -372 c0 -2 -8 -10 -17 -17 -16 -13 -17 -12 -4 4 13 16 21 21 21 13z"/>
<path d="M6630 5687 c-19 -32 -102 -107 -227 -204 -78 -61 -95 -61 -208 6
-127 76 -175 102 -175 97 0 -2 59 -39 130 -82 72 -43 130 -81 130 -84 0 -6
-54 -30 -354 -153 l-150 -62 -23 -60 c-12 -33 -27 -67 -32 -77 -6 -10 41 8
122 47 73 35 131 68 130 74 -2 6 3 8 10 5 7 -2 50 15 94 40 140 77 243 127
253 121 6 -3 5 -16 0 -31 -18 -45 -10 -50 10 -6 10 23 23 42 27 42 4 0 91 -53
192 -118 179 -115 184 -119 197 -163 26 -84 103 -394 106 -424 3 -28 6 -30 38
-28 19 2 62 10 95 19 33 8 107 23 164 33 l104 17 44 135 c24 74 46 143 47 155
2 11 6 26 9 31 4 6 0 16 -7 22 -8 7 -33 41 -56 76 -23 36 -46 62 -51 59 -8 -5
-13 9 -10 29 0 4 -4 6 -10 5 -6 -2 -14 3 -17 11 -3 9 0 11 8 6 8 -5 6 2 -3 16
-10 13 -23 24 -29 24 -6 0 -13 6 -16 14 -3 9 0 11 8 6 9 -5 11 -4 6 4 -4 6
-12 9 -17 5 -6 -3 -9 2 -7 12 2 11 -3 19 -12 19 -8 0 -14 9 -14 18 1 10 -1 16
-4 13 -3 -3 -11 -1 -19 5 -10 9 -13 8 -13 -5 0 -9 7 -19 15 -22 8 -4 15 -13
15 -21 0 -8 11 -24 25 -35 13 -10 24 -22 24 -26 -4 -28 1 -34 18 -21 12 10 15
11 9 1 -4 -7 -2 -19 4 -27 6 -8 8 -20 4 -26 -4 -7 -3 -9 4 -5 6 3 16 -3 22
-15 9 -16 8 -24 -5 -39 -9 -10 -24 -16 -33 -13 -13 4 -14 3 -3 -5 10 -7 10
-11 2 -17 -8 -5 -5 -12 9 -25 22 -19 12 -38 -12 -24 -7 4 -9 3 -5 -2 4 -4 -29
-17 -75 -27 -46 -10 -91 -20 -101 -22 -11 -3 -17 0 -14 8 3 7 22 82 42 167 21
85 42 172 47 193 8 34 11 37 25 25 15 -12 10 0 -23 50 -1 2 -21 -17 -44 -42
-24 -25 -47 -46 -52 -46 -10 0 -36 29 -184 207 -61 73 -123 142 -138 154 l-26
20 -20 -34z m87 -43 c15 -20 81 -100 145 -177 l118 -142 -43 -38 c-23 -21 -74
-63 -113 -93 l-72 -55 -138 88 c-224 142 -236 151 -228 176 11 40 30 61 129
147 54 47 107 95 119 107 30 32 51 28 83 -13z"/>
<path d="M2405 5703 c-44 -8 -285 -77 -281 -80 2 -2 64 12 137 31 74 19 146
37 161 39 15 1 29 5 32 8 6 6 -22 7 -49 2z"/>
<path d="M5820 5702 c0 -4 15 -16 33 -26 17 -10 26 -13 20 -5 -18 18 -16 27 5
32 9 3 0 5 -20 6 -21 0 -38 -3 -38 -7z"/>
<path d="M1959 5670 c12 -19 21 -43 21 -52 0 -15 8 -18 43 -17 23 1 53 5 67
10 20 7 16 8 -19 5 -40 -4 -46 -2 -88 42 -41 44 -43 45 -24 12z"/>
<path d="M7900 5686 c0 -2 8 -10 18 -17 15 -13 16 -12 3 4 -13 16 -21 21 -21
13z"/>
<path d="M1108 5638 c11 -18 29 -49 41 -68 13 -21 21 -52 21 -79 0 -35 3 -42
16 -37 9 3 27 9 40 12 38 10 30 74 -10 74 -30 0 -47 15 -85 78 -18 28 -35 52
-38 52 -2 0 4 -15 15 -32z"/>
<path d="M2499 5643 l-24 -28 28 24 c25 23 32 31 24 31 -2 0 -14 -12 -28 -27z"/>
<path d="M1609 5633 c-13 -16 -12 -17 4 -4 16 13 21 21 13 21 -2 0 -10 -8 -17
-17z"/>
<path d="M5910 5646 c0 -2 16 -13 35 -25 19 -11 35 -17 35 -13 0 5 -16 16 -35
25 -19 9 -35 15 -35 13z"/>
<path d="M8919 5633 c-13 -16 -12 -17 4 -4 9 7 17 15 17 17 0 8 -8 3 -21 -13z"/>
<path d="M7946 5628 c3 -5 10 -6 15 -3 13 9 11 12 -6 12 -8 0 -12 -4 -9 -9z"/>
<path d="M4428 5583 c7 -3 16 -2 19 1 4 3 -2 6 -13 5 -11 0 -14 -3 -6 -6z"/>
<path d="M4658 5583 c7 -3 16 -2 19 1 4 3 -2 6 -13 5 -11 0 -14 -3 -6 -6z"/>
<path d="M5291 5554 c0 -11 3 -14 6 -6 3 7 2 16 -1 19 -3 4 -6 -2 -5 -13z"/>
<path d="M3500 5520 c8 -5 22 -9 30 -9 10 0 8 3 -5 9 -27 12 -43 12 -25 0z"/>
<path d="M5301 5530 c-4 -25 138 -440 150 -440 4 0 -24 91 -62 202 -38 111
-67 208 -65 215 3 8 2 12 -3 8 -5 -3 -12 1 -14 7 -3 7 -6 11 -6 8z"/>
<path d="M5205 5434 c-24 -19 -28 -27 -19 -41 14 -23 26 -25 47 -9 14 11 16
20 10 44 l-8 30 -30 -24z"/>
<path d="M4105 5422 c-74 -22 -198 -35 -189 -21 5 8 -21 19 -46 19 -21 0 -33
-45 -16 -59 6 -5 49 -26 95 -46 70 -31 92 -36 130 -32 46 5 46 5 17 -10 l-28
-15 83 -39 c46 -21 89 -40 94 -43 6 -2 0 -14 -11 -27 -12 -13 -56 -70 -98
-126 -107 -145 -101 -148 -220 80 -53 101 -103 192 -111 203 -14 19 -14 19
-15 -1 -4 -309 -29 -737 -44 -751 -6 -7 -50 -26 -98 -44 l-86 -33 2 -50 c1
-34 8 -53 20 -63 17 -12 17 -13 -8 -20 -14 -3 -26 -9 -26 -13 0 -4 24 -26 53
-50 30 -24 64 -64 80 -94 16 -29 25 -43 21 -32 -18 56 -18 58 4 46 39 -21 56
-12 95 50 21 33 41 67 44 75 3 8 11 14 17 14 10 0 107 -51 186 -98 12 -7 12
-15 2 -49 -11 -36 -20 -44 -93 -84 -45 -24 -92 -53 -103 -64 -12 -11 -25 -21
-29 -22 -38 -9 -13 -11 91 -6 l122 6 0 -48 c0 -48 2 -51 93 -145 182 -189 193
-203 250 -314 l55 -109 -26 -21 c-15 -11 -29 -23 -32 -26 -3 -3 -72 -58 -155
-123 -163 -127 -230 -183 -203 -170 9 4 107 79 218 166 111 87 204 157 206
155 10 -10 342 -695 390 -803 29 -66 56 -119 61 -117 14 6 5 27 -144 330 -162
330 -293 602 -293 607 0 5 269 220 384 306 144 108 166 123 173 116 6 -6 -11
-314 -24 -440 -5 -50 -4 -59 8 -52 11 7 12 6 3 -6 -14 -18 -28 -142 -54 -469
-12 -140 -25 -279 -30 -309 -11 -62 -2 -92 20 -65 8 9 22 33 32 53 10 20 16
27 12 16 -19 -67 -34 -132 -34 -152 0 -16 -6 -23 -19 -23 -23 0 -19 33 -67
-510 -73 -838 -83 -943 -91 -951 -4 -4 -24 -9 -43 -12 -33 -4 -32 -4 9 -5 l43
-2 -4 -40 -3 -39 230 -3 c126 -2 310 -2 408 0 l177 3 0 39 c0 31 4 40 18 41
14 0 14 2 -3 8 -19 8 -23 29 -43 227 -13 121 -45 430 -72 689 -87 824 -110
1056 -126 1245 -9 102 -20 186 -24 188 -4 2 -5 17 -1 35 4 18 4 43 0 57 -11
38 -10 135 1 165 5 14 6 24 1 21 -5 -3 -11 4 -15 17 -11 41 -8 47 24 41 39 -8
38 -1 -5 25 -30 17 -35 26 -35 56 0 21 5 35 13 35 13 0 -44 26 -208 94 -112
46 -175 56 -169 26 3 -9 -36 -47 -99 -97 -95 -75 -357 -284 -384 -305 -9 -7
-27 21 -68 101 -30 61 -55 118 -55 127 0 13 161 305 233 425 9 14 -34 86 -120
198 -1 2 -11 -7 -22 -20 -12 -14 -4 10 19 58 21 45 46 85 55 90 9 5 24 22 33
37 13 22 50 42 172 93 154 64 356 143 365 143 3 0 2 -51 -1 -113 l-7 -113 43
-37 c24 -20 47 -37 52 -37 4 0 8 -9 8 -20 0 -27 22 -25 71 6 35 22 40 29 35
52 -3 15 -8 70 -11 122 -3 52 -8 122 -11 155 l-6 61 87 43 c65 32 89 40 100
31 10 -8 13 -7 11 7 -1 16 7 18 64 16 57 -1 61 0 30 8 -127 35 -125 46 28 121
l127 63 22 73 c12 39 19 72 17 72 -3 0 -69 -25 -147 -56 -78 -31 -173 -67
-212 -79 -46 -15 -77 -32 -89 -49 -19 -24 -19 -26 -2 -45 34 -38 -1 -29 -39 9
l-39 40 -30 -24 c-17 -12 -64 -46 -103 -74 -69 -49 -73 -51 -83 -32 -6 12 -14
42 -17 68 -4 37 -2 52 12 65 11 11 12 17 4 17 -7 0 -103 33 -213 74 -111 40
-257 93 -326 116 -69 24 -145 54 -169 67 -24 12 -51 23 -59 23 -9 0 -45 11
-81 25 -129 50 -125 43 -36 73 85 28 91 30 84 35 -2 2 -40 -8 -84 -21z m-174
-416 c53 -100 139 -261 192 -359 54 -98 97 -181 97 -186 0 -4 -9 -16 -19 -25
-20 -18 -150 -34 -278 -36 l-52 0 -11 39 c-18 67 -34 71 -83 16 -23 -26 -51
-51 -62 -57 -11 -6 -3 4 18 22 20 17 37 36 37 42 0 6 -9 3 -20 -7 -26 -24 -25
-20 9 47 18 33 26 59 20 65 -5 5 -3 105 6 248 8 132 15 281 15 330 1 87 2 89
18 66 9 -13 60 -106 113 -205z m519 167 c-11 -17 -11 -17 -6 0 3 10 6 24 7 30
0 9 2 9 5 0 3 -7 0 -20 -6 -30z m-125 -33 c51 -25 151 -68 445 -191 224 -93
236 -97 255 -81 14 12 17 13 10 2 -6 -8 -10 -22 -9 -30 1 -8 2 -21 3 -29 1 -7
7 -11 16 -7 8 3 14 2 13 -2 -2 -4 6 -19 16 -34 29 -44 15 -62 -72 -93 -42 -15
-106 -40 -142 -57 -186 -86 -318 -136 -344 -131 -19 4 -34 -1 -49 -15 -27 -25
-88 -52 -119 -52 -45 0 -126 104 -213 272 l-80 156 18 36 c21 45 195 276 207
276 3 0 23 -9 45 -20z m106 -17 c-12 -20 -14 -14 -5 12 4 9 9 14 11 11 3 -2 0
-13 -6 -23z m912 -213 c8 -11 16 -18 19 -15 2 3 15 -6 28 -20 13 -14 18 -25
11 -25 -15 0 -91 60 -91 72 0 15 19 8 33 -12z m-269 -31 c-3 -5 -10 -7 -15 -3
-5 3 -7 10 -3 15 3 5 10 7 15 3 5 -3 7 -10 3 -15z m-1366 -376 c-2 -10 -11
-19 -21 -21 -16 -3 -17 -1 -5 17 16 25 31 27 26 4z m-16 -82 c-7 -33 -8 -34
-26 -16 -18 18 -18 19 3 27 11 4 21 13 21 19 0 7 2 10 4 8 3 -2 1 -19 -2 -38z
m1528 5 c0 -2 -8 -10 -17 -17 -16 -13 -17 -12 -4 4 13 16 21 21 21 13z m-775
-36 c-8 -16 -15 -39 -15 -52 0 -20 -3 -19 -40 17 -22 21 -37 42 -32 46 8 8 43
15 80 18 22 1 22 0 7 -29z m-275 3 c-1 -5 -20 -35 -44 -68 -37 -53 -46 -60
-72 -57 -22 3 -150 71 -184 99 -14 12 32 19 137 22 65 1 120 5 122 7 7 7 41 4
41 -3z m220 -187 c0 -2 -8 -10 -17 -17 -16 -13 -17 -12 -4 4 13 16 21 21 21
13z m-50 -60 c0 -2 -8 -10 -17 -17 -16 -13 -17 -12 -4 4 13 16 21 21 21 13z
m-306 -60 c-8 -55 -16 -58 -118 -54 l-70 3 95 51 c52 28 95 50 97 49 1 -1 -1
-23 -4 -49z m1243 -813 c-12 -31 -23 -51 -25 -45 -3 11 33 102 41 102 3 0 -5
-25 -16 -57z m-51 -120 c-8 -15 -15 -25 -16 -21 0 12 23 58 27 54 3 -2 -2 -17
-11 -33z m-25 -60 c-12 -20 -14 -14 -5 12 4 9 9 14 11 11 3 -2 0 -13 -6 -23z
m-20 -50 c-12 -20 -14 -14 -5 12 4 9 9 14 11 11 3 -2 0 -13 -6 -23z m-20 -50
c-12 -20 -14 -14 -5 12 4 9 9 14 11 11 3 -2 0 -13 -6 -23z m-50 -120 c-12 -20
-14 -14 -5 12 4 9 9 14 11 11 3 -2 0 -13 -6 -23z m-20 -50 c-12 -20 -14 -14
-5 12 4 9 9 14 11 11 3 -2 0 -13 -6 -23z m-20 -50 c-12 -20 -14 -14 -5 12 4 9
9 14 11 11 3 -2 0 -13 -6 -23z m-20 -50 c-12 -20 -14 -14 -5 12 4 9 9 14 11
11 3 -2 0 -13 -6 -23z m-20 -50 c-12 -20 -14 -14 -5 12 4 9 9 14 11 11 3 -2 0
-13 -6 -23z m-30 -80 c-12 -20 -14 -14 -5 12 4 9 9 14 11 11 3 -2 0 -13 -6
-23z"/>
<path d="M5201 5273 l-33 -67 24 -17 c13 -10 31 -20 41 -23 17 -4 18 1 12 82
-4 48 -8 88 -9 89 -1 1 -17 -28 -35 -64z"/>
<path d="M8425 5305 c-60 -19 -114 -34 -119 -35 -5 0 -7 -3 -3 -6 3 -3 29 2
57 11 28 9 60 15 71 12 10 -3 17 -1 14 3 -3 5 23 18 57 29 35 10 56 19 48 20
-8 0 -64 -15 -125 -34z"/>
<path d="M4310 5320 c-9 -6 -10 -10 -3 -10 6 0 15 5 18 10 8 12 4 12 -15 0z"/>
<path d="M3689 5298 c-6 -12 -138 -197 -293 -412 -155 -215 -291 -404 -303
-421 -19 -28 -20 -37 -12 -136 7 -91 14 -119 47 -195 74 -169 72 -165 112
-162 l35 3 -2 78 c-1 42 2 77 6 77 5 0 62 -23 127 -51 66 -28 154 -64 197 -79
43 -15 81 -30 84 -34 3 -3 -35 -31 -86 -63 -57 -37 -95 -68 -103 -86 -7 -15
-22 -30 -33 -32 -11 -2 -132 -6 -270 -9 -137 -3 -383 -9 -545 -12 -162 -4
-302 -10 -310 -15 -14 -8 545 -3 643 6 l47 4 0 -325 c0 -220 3 -323 10 -319 7
4 10 115 10 318 -1 246 2 312 12 318 19 10 428 16 428 5 0 -5 -94 -149 -208
-320 -230 -344 -225 -336 -218 -336 3 0 74 102 157 228 214 321 261 385 271
370 4 -7 8 -23 8 -35 0 -17 23 -35 108 -84 172 -100 176 -102 180 -84 2 8 7
15 12 15 5 0 7 7 3 16 -4 12 -8 12 -13 4 -5 -8 -10 -1 -15 18 -3 18 -3 37 1
43 4 7 3 9 -3 6 -11 -7 -46 119 -37 135 4 6 0 16 -9 23 -15 10 -13 23 18 138
27 102 31 128 20 137 -7 6 -18 24 -25 41 -7 16 -15 28 -17 25 -2 -2 3 -20 11
-40 13 -32 13 -36 0 -36 -9 0 -77 37 -152 82 -220 131 -230 136 -236 130 -3
-3 26 -22 64 -43 39 -21 103 -60 143 -86 39 -26 94 -60 122 -75 38 -20 45 -28
33 -33 -15 -6 -342 107 -410 142 -25 12 -28 19 -28 69 0 52 1 54 20 44 13 -7
20 -7 20 -1 0 6 -11 13 -24 17 -20 5 -24 14 -29 57 -4 28 -12 57 -20 64 -7 7
-42 23 -78 35 l-66 23 279 385 c153 212 294 406 313 432 19 26 30 50 25 53 -5
3 -14 -4 -21 -17z"/>
<path d="M8891 5200 c1 -63 3 -107 6 -97 2 9 8 17 13 17 4 0 11 11 14 25 4 15
14 25 26 26 39 3 60 14 60 31 0 7 -4 7 -13 0 -10 -8 -16 -6 -25 9 -10 16 -9
19 5 20 14 0 12 3 -5 10 -13 5 -20 13 -17 19 3 5 -1 10 -9 10 -16 0 -23 19 -8
21 65 6 108 11 110 14 2 2 -33 5 -77 7 l-81 3 1 -115z"/>
<path d="M5103 5250 c1 -42 6 -65 14 -65 6 0 15 -4 20 -9 4 -5 3 -6 -4 -2 -14
8 -47 -47 -35 -59 4 -3 2 -5 -3 -3 -6 2 -27 -16 -48 -39 -28 -30 -33 -41 -20
-39 10 2 18 8 18 14 0 7 5 12 10 13 6 0 20 10 33 22 13 12 27 21 30 20 4 -2 7
1 7 6 0 5 3 12 7 16 3 4 5 -1 4 -12 -2 -10 4 -24 13 -31 9 -8 10 -11 4 -7 -9
4 -11 1 -7 -10 10 -26 26 -2 31 47 4 34 1 48 -16 67 -12 13 -21 31 -22 40 0 9
-9 34 -19 56 l-19 40 2 -65z m63 -147 c-11 -11 -17 4 -9 23 7 18 8 18 11 1 2
-10 1 -21 -2 -24z"/>
<path d="M9113 5280 c1 -11 2 -20 4 -20 1 0 7 9 13 20 8 16 8 20 -4 20 -9 0
-14 -8 -13 -20z"/>
<path d="M2061 5277 c3 -4 68 -32 145 -62 76 -31 144 -61 149 -66 7 -7 4 -15
-7 -23 -10 -7 -14 -17 -10 -21 4 -5 2 -5 -4 -2 -15 8 -265 -93 -258 -104 3 -5
-3 -6 -12 -2 -12 4 -15 3 -10 -5 5 -8 2 -10 -8 -6 -11 4 -16 0 -16 -11 0 -9 4
-14 9 -10 12 7 30 -11 146 -138 l89 -98 48 183 c26 101 47 193 48 206 0 15 6
22 19 22 28 0 47 28 34 48 -15 24 -41 27 -63 7 -18 -16 -22 -16 -72 3 -52 20
-173 64 -213 78 -11 4 -17 4 -14 1z"/>
<path d="M7104 5269 c-3 -6 -1 -16 4 -21 8 -8 8 -18 1 -32 -10 -20 -10 -21 5
-2 11 13 13 23 6 30 -16 16 -12 30 5 16 13 -11 14 -10 9 4 -7 18 -20 21 -30 5z"/>
<path d="M9003 5265 c0 -8 4 -12 9 -9 5 3 6 10 3 15 -9 13 -12 11 -12 -6z"/>
<path d="M8970 5260 c0 -5 5 -10 11 -10 5 0 7 5 4 10 -3 6 -8 10 -11 10 -2 0
-4 -4 -4 -10z"/>
<path d="M8268 5253 c7 -3 16 -2 19 1 4 3 -2 6 -13 5 -11 0 -14 -3 -6 -6z"/>
<path d="M1448 5187 c-43 -23 -126 -68 -185 -101 -239 -130 -337 -179 -341
-168 -4 12 -62 -17 -62 -31 0 -23 23 -47 45 -47 13 0 27 -4 30 -10 3 -5 10
-10 16 -10 5 0 4 8 -2 19 -22 35 -5 47 93 66 51 10 88 20 82 22 -5 2 -43 -3
-84 -11 -41 -8 -76 -13 -78 -11 -2 2 54 33 125 71 254 134 465 255 443 254 -3
-1 -40 -20 -82 -43z"/>
<path d="M9050 5225 c0 -7 30 -13 34 -7 3 4 -4 9 -15 9 -10 1 -19 0 -19 -2z"/>
<path d="M7143 5205 c-9 -24 1 -27 15 -5 8 13 8 20 2 20 -6 0 -13 -7 -17 -15z"/>
<path d="M8100 5205 c-19 -7 -28 -13 -20 -13 8 0 31 6 50 13 19 7 28 13 20 13
-8 0 -31 -6 -50 -13z"/>
<path d="M6281 5169 c-7 -22 -11 -43 -8 -45 2 -2 9 14 16 37 7 22 11 43 8 45
-2 2 -9 -14 -16 -37z"/>
<path d="M9036 5195 c-12 -9 -15 -15 -7 -15 11 0 11 -3 0 -17 -7 -10 -1 -7 13
6 15 13 25 28 22 32 -6 11 -5 11 -28 -6z"/>
<path d="M3065 5180 c10 -11 20 -20 23 -20 3 0 -3 9 -13 20 -10 11 -20 20 -23
20 -3 0 3 -9 13 -20z"/>
<path d="M7080 5186 c0 -3 21 -20 48 -37 26 -18 39 -24 30 -13 -17 20 -78 59
-78 50z"/>
<path d="M7920 5150 c-63 -21 -110 -38 -105 -39 6 0 64 17 130 38 66 21 113
39 105 39 -8 0 -67 -17 -130 -38z"/>
<path d="M8605 5093 c-21 -32 -48 -71 -59 -88 -12 -19 -14 -25 -4 -18 8 7 17
11 20 8 2 -3 23 29 46 72 23 42 40 78 38 80 -2 2 -20 -22 -41 -54z"/>
<path d="M8990 5140 c-11 -7 -12 -12 -4 -20 8 -8 14 -7 23 4 14 17 1 28 -19
16z"/>
<path d="M8935 5130 c3 -5 1 -10 -4 -10 -6 0 -11 -6 -11 -13 0 -8 7 -14 15
-14 8 0 12 4 9 8 -2 4 0 10 6 14 12 7 4 25 -11 25 -6 0 -7 -4 -4 -10z"/>
<path d="M8536 5105 c-27 -14 -52 -23 -55 -21 -3 3 -22 -9 -41 -25 -35 -29
-35 -29 -5 -17 49 21 171 87 160 87 -5 0 -32 -11 -59 -24z"/>
<path d="M6226 4984 c-21 -69 -36 -128 -33 -130 2 -2 20 53 41 122 20 70 35
128 33 131 -2 2 -21 -53 -41 -123z"/>
<path d="M8963 5083 c0 -9 4 -10 14 -2 7 6 13 12 13 14 0 1 -6 2 -13 2 -8 0
-14 -6 -14 -14z"/>
<path d="M7685 5080 c-13 -5 -14 -9 -5 -9 8 0 24 4 35 9 13 5 14 9 5 9 -8 0
-24 -4 -35 -9z"/>
<path d="M8892 5040 c1 -22 4 -37 7 -34 9 9 7 74 -2 74 -4 0 -7 -18 -5 -40z"/>
<path d="M8943 5055 c0 -8 4 -12 9 -9 5 3 6 10 3 15 -9 13 -12 11 -12 -6z"/>
<path d="M7430 5031 c-9 -6 -15 -27 -15 -54 0 -39 -2 -44 -17 -36 -12 7 -15 5
-12 -9 4 -14 -9 -68 -62 -268 -5 -20 -1 -21 120 -30 100 -7 126 -6 126 4 0 7
8 40 17 73 23 83 41 92 192 90 167 -2 295 -12 299 -22 2 -5 12 -9 22 -9 10 0
20 -5 22 -12 8 -23 -90 -501 -103 -506 -5 -2 -9 -13 -9 -25 0 -15 3 -18 8 -10
8 13 111 37 120 28 3 -3 -3 -15 -14 -27 -15 -18 -13 -17 13 4 24 19 48 28 95
32 107 11 138 17 138 27 0 10 -16 9 -148 -10 -46 -7 -52 -6 -47 7 5 14 4 14
-12 0 -10 -8 -42 -18 -71 -21 l-54 -6 7 27 c15 60 74 352 85 423 12 73 14 77
43 86 39 11 48 33 13 33 -34 0 -34 23 2 58 15 15 19 19 7 10 -11 -10 -40 -24
-64 -33 l-43 -15 -61 58 -62 57 53 -57 c28 -31 52 -62 52 -67 0 -6 0 -14 0
-18 0 -3 -16 -6 -35 -5 -19 0 -110 1 -201 1 -142 1 -165 3 -161 16 7 18 -13
32 -22 16 -4 -7 -15 -9 -26 -5 -16 6 -17 16 -12 96 l6 90 -54 -4 c-29 -1 -51
0 -48 5 2 4 -4 7 -14 7 -10 0 -27 3 -38 5 -11 3 -27 1 -35 -4z"/>
<path d="M4980 4990 c0 -10 79 -34 87 -27 2 3 -9 8 -26 12 -17 4 -31 11 -31
16 0 5 -7 9 -15 9 -8 0 -15 -4 -15 -10z"/>
<path d="M1310 4970 c-47 -10 -76 -18 -65 -18 11 -1 61 7 110 17 50 11 79 19
65 19 -14 0 -63 -8 -110 -18z"/>
<path d="M8910 4924 c11 -38 20 -73 20 -78 0 -5 3 -7 6 -4 7 7 -25 129 -37
142 -5 5 0 -22 11 -60z"/>
<path d="M1535 4938 l-16 -33 20 25 c20 24 26 40 16 40 -2 0 -12 -15 -20 -32z"/>
<path d="M1760 4963 c25 -2 96 -12 158 -24 63 -11 116 -18 119 -15 8 8 -7 11
-118 30 -52 9 -120 15 -150 14 -52 -1 -52 -2 -9 -5z"/>
<path d="M5260 4966 c0 -2 8 -10 18 -17 15 -13 16 -12 3 4 -13 16 -21 21 -21
13z"/>
<path d="M1198 4943 c7 -3 16 -2 19 1 4 3 -2 6 -13 5 -11 0 -14 -3 -6 -6z"/>
<path d="M1148 4933 c7 -3 16 -2 19 1 4 3 -2 6 -13 5 -11 0 -14 -3 -6 -6z"/>
<path d="M1495 4870 c-9 -16 -13 -30 -11 -30 3 0 12 14 21 30 9 17 13 30 11
30 -3 0 -12 -13 -21 -30z"/>
<path d="M5674 4831 c3 -4 20 -11 38 -14 18 -3 96 -17 173 -31 77 -14 147 -26
155 -25 12 0 -103 25 -341 73 -16 3 -28 2 -25 -3z"/>
<path d="M6181 4833 c-1 -6 -4 -20 -7 -30 -5 -17 -5 -17 6 0 6 10 9 23 6 30
-3 9 -5 9 -5 0z"/>
<path d="M8942 4810 c0 -14 2 -19 5 -12 2 6 2 18 0 25 -3 6 -5 1 -5 -13z"/>
<path d="M5460 4817 c0 -2 15 -16 33 -33 l32 -29 -29 33 c-28 30 -36 37 -36
29z"/>
<path d="M5405 4803 c6 -5 37 -30 70 -55 33 -25 69 -55 79 -67 19 -21 42 -30
31 -11 -3 5 -41 36 -83 68 -75 57 -118 86 -97 65z"/>
<path d="M1048 4719 l82 -85 8 -67 c10 -78 7 -75 144 -147 l97 -51 11 41 c6
23 13 63 15 88 2 26 9 75 14 110 5 35 7 78 4 97 l-6 35 -112 0 c-61 0 -115 -3
-118 -7 -4 -3 5 -22 20 -42 l26 -36 -34 33 c-19 17 -38 32 -41 32 -3 0 -8 -13
-11 -30 -4 -16 -11 -30 -16 -30 -5 0 -44 32 -87 72 l-79 72 83 -85z"/>
<path d="M8951 4764 c0 -11 3 -14 6 -6 3 7 2 16 -1 19 -3 4 -6 -2 -5 -13z"/>
<path d="M2390 4741 c-90 -14 -117 -23 -192 -64 -49 -26 -88 -52 -88 -58 0
-17 -19 -9 -25 12 -4 11 -9 19 -11 16 -9 -8 9 -38 28 -48 16 -9 19 -8 13 3 -3
7 3 2 14 -12 25 -33 151 -141 132 -115 -8 11 3 1 23 -23 21 -23 42 -39 48 -36
5 3 15 -2 22 -11 12 -16 18 -15 87 21 l74 39 2 100 c1 55 -2 113 -7 128 -6 19
-6 36 1 48 11 22 21 22 -121 0z m-150 -238 c0 -7 -75 54 -91 74 -8 10 10 -2
39 -26 28 -24 52 -46 52 -48z"/>
<path d="M8961 4724 c0 -11 3 -14 6 -6 3 7 2 16 -1 19 -3 4 -6 -2 -5 -13z"/>
<path d="M6360 4710 c0 -6 7 -10 15 -10 8 0 15 2 15 4 0 2 -7 6 -15 10 -8 3
-15 1 -15 -4z"/>
<path d="M8691 4688 c20 -18 95 -85 165 -149 132 -119 160 -147 153 -154 -3
-3 -258 80 -294 96 -5 2 -12 0 -15 -6 -5 -10 34 -26 200 -76 l105 -32 -45 -13
-45 -14 43 4 c34 3 48 0 63 -15 26 -26 65 -22 61 6 -2 11 -11 28 -20 38 -14
16 -14 19 -2 27 8 6 11 10 5 11 -5 0 -20 2 -32 3 -19 2 -267 207 -303 251 -7
9 -27 25 -44 36 -28 19 -28 18 5 -13z"/>
<path d="M5597 4663 c-8 -27 -40 -137 -72 -245 l-58 -197 -71 6 c-39 3 -79 10
-89 15 -10 5 -20 8 -22 6 -1 -2 -24 -45 -49 -96 l-47 -94 30 -46 c30 -47 151
-297 151 -312 0 -4 7 -13 15 -20 9 -7 14 -19 11 -27 -3 -7 -1 -13 4 -13 13 0
96 -77 127 -119 l27 -36 -37 33 c-21 17 -43 32 -49 32 -19 0 12 -28 95 -86 51
-36 84 -67 90 -85 14 -37 60 -49 88 -23 21 19 25 64 7 82 -15 15 -60 16 -75 1
-9 -9 -19 -8 -40 6 -30 19 -223 213 -223 224 0 3 46 65 103 137 145 185 143
182 126 301 l-14 98 -65 3 c-36 2 -69 7 -73 11 -6 6 106 402 119 420 2 2 31
-21 66 -51 35 -29 125 -103 201 -163 121 -96 138 -113 134 -135 -2 -14 -55
-184 -116 -378 -62 -194 -111 -355 -109 -357 2 -3 33 84 68 193 34 108 87 270
116 359 30 89 54 171 54 183 0 11 5 20 10 20 6 0 10 8 10 18 0 9 25 96 55 192
29 96 52 176 50 178 -3 4 -37 -100 -101 -310 -10 -32 -22 -58 -28 -58 -11 0
-32 16 -280 219 -120 97 -128 105 -122 132 9 46 -2 34 -17 -18z"/>
<path d="M6442 4695 c13 -14 340 -64 362 -55 13 5 15 9 6 9 -26 2 -313 41
-345 47 -16 4 -27 3 -23 -1z"/>
<path d="M8971 4684 c0 -11 3 -14 6 -6 3 7 2 16 -1 19 -3 4 -6 -2 -5 -13z"/>
<path d="M8981 4644 c0 -11 3 -14 6 -6 3 7 2 16 -1 19 -3 4 -6 -2 -5 -13z"/>
<path d="M2744 4615 c-13 -10 -14 -13 -3 -10 11 4 38 -16 83 -63 36 -38 73
-69 81 -69 8 0 -20 36 -62 79 -43 43 -78 78 -78 78 -1 0 -10 -7 -21 -15z"/>
<path d="M8991 4604 c0 -11 3 -14 6 -6 3 7 2 16 -1 19 -3 4 -6 -2 -5 -13z"/>
<path d="M1920 4607 c0 -2 15 -16 33 -33 l32 -29 -29 33 c-28 30 -36 37 -36
29z"/>
<path d="M6958 4595 c17 -33 55 -64 357 -290 309 -232 360 -274 370 -306 4
-11 14 -86 23 -167 l17 -147 33 3 34 3 -28 -48 c-15 -26 -33 -59 -41 -71 -8
-13 -13 -26 -11 -28 3 -2 15 15 28 39 13 23 32 53 43 67 16 20 18 21 13 5 -3
-12 2 -32 13 -49 l19 -29 7 57 c6 46 12 59 29 66 20 8 249 40 253 36 1 -1 3
-59 4 -129 2 -101 5 -127 16 -127 8 0 69 -22 135 -50 128 -53 132 -54 125 -42
-3 4 -15 71 -26 149 l-22 142 22 73 c12 40 26 77 30 82 15 17 10 27 -8 18 -17
-9 -247 -82 -268 -85 -16 -3 -106 103 -99 115 4 6 3 8 -3 5 -14 -9 -79 62
-168 182 l-78 105 -21 -25 c-11 -14 -33 -40 -47 -59 l-25 -33 -50 33 c-60 42
-388 289 -465 350 -74 60 -177 142 -202 160 -19 14 -19 13 -9 -5z"/>
<path d="M6936 4540 c6 -50 58 -209 379 -1148 59 -173 105 -315 103 -317 -4
-4 -114 91 -494 429 -384 342 -431 384 -409 357 11 -13 148 -139 306 -280 488
-438 569 -512 570 -524 1 -7 0 -22 -1 -35 -4 -53 61 -81 98 -42 l19 20 123
-50 c68 -27 127 -56 132 -63 4 -6 15 -39 25 -71 9 -33 19 -54 21 -48 2 7 8 12
13 12 6 0 7 -4 4 -10 -3 -5 0 -10 7 -11 7 0 4 -5 -7 -10 -14 -6 0 -8 47 -6 36
1 64 -1 61 -5 -2 -5 12 -8 32 -8 32 0 36 2 30 20 -13 40 -65 150 -72 150 -3 0
-3 -3 0 -7 4 -3 1 -13 -6 -21 -10 -13 -9 -15 6 -9 21 8 22 -6 2 -23 -8 -7 -15
-8 -15 -3 0 15 -41 13 -46 -2 -5 -11 -10 -10 -27 5 -11 11 -26 19 -32 18 -6
-2 -13 1 -15 6 -7 12 28 17 36 5 8 -14 60 -11 72 4 8 10 6 13 -11 14 -18 2
-19 0 -7 -8 11 -8 6 -9 -20 -4 -19 3 -46 6 -60 7 -33 2 -43 18 -22 35 16 12
16 13 0 7 -21 -7 -245 83 -272 110 -20 20 -20 20 5 38 118 85 323 228 328 228
4 0 15 -54 24 -121 18 -119 35 -188 36 -144 1 11 -5 58 -13 105 -8 47 -17 106
-21 131 l-6 46 63 40 c35 23 74 54 88 69 31 34 15 25 -78 -44 -41 -29 -75 -52
-77 -50 -2 2 -11 55 -20 118 -9 63 -19 117 -21 119 -7 8 -4 -27 11 -131 9 -56
14 -107 11 -114 -5 -14 -332 -244 -346 -244 -5 0 5 28 24 63 81 151 196 380
192 384 -2 2 -48 -83 -101 -189 -54 -106 -106 -208 -117 -225 -37 -62 -48 -48
-117 155 -35 103 -137 403 -228 667 -91 264 -176 521 -189 570 -21 77 -23 82
-18 35z"/>
<path d="M6675 4545 c-101 -37 -255 -102 -263 -110 -11 -11 12 -3 183 60 96
36 179 65 184 65 6 0 13 5 16 10 11 18 -28 10 -120 -25z"/>
<path d="M9001 4564 c0 -11 3 -14 6 -6 3 7 2 16 -1 19 -3 4 -6 -2 -5 -13z"/>
<path d="M2030 4510 c20 -19 48 -45 63 -57 16 -14 27 -33 27 -47 0 -32 16 -42
29 -19 11 22 1 37 -54 77 -22 16 -54 41 -70 55 -19 16 -16 12 5 -9z"/>
<path d="M9011 4524 c0 -11 3 -14 6 -6 3 7 2 16 -1 19 -3 4 -6 -2 -5 -13z"/>
<path d="M9021 4474 c0 -11 3 -14 6 -6 3 7 2 16 -1 19 -3 4 -6 -2 -5 -13z"/>
<path d="M8481 4467 c-1 -4 8 -26 19 -48 36 -70 43 -92 25 -85 -13 5 -13 1 2
-19 21 -28 35 -29 148 -10 l80 14 -70 -4 c-38 -2 -86 -6 -105 -9 -19 -4 -30
-3 -23 0 9 4 9 9 2 17 -5 7 -25 44 -44 82 -18 39 -34 66 -34 62z"/>
<path d="M8659 4453 c-13 -16 -12 -17 4 -4 16 13 21 21 13 21 -2 0 -10 -8 -17
-17z"/>
<path d="M2016 4431 c5 -5 27 -6 49 -1 l40 8 -49 1 c-30 1 -46 -3 -40 -8z"/>
<path d="M8599 4373 c-13 -16 -12 -17 4 -4 16 13 21 21 13 21 -2 0 -10 -8 -17
-17z"/>
<path d="M8858 4333 c12 -2 30 -2 40 0 9 3 -1 5 -23 4 -22 0 -30 -2 -17 -4z"/>
<path d="M8783 4323 c9 -2 25 -2 35 0 9 3 1 5 -18 5 -19 0 -27 -2 -17 -5z"/>
<path d="M4540 4305 c14 -8 30 -14 35 -14 6 0 -1 6 -15 14 -14 8 -29 14 -35
14 -5 0 1 -6 15 -14z"/>
<path d="M5116 4278 c-35 -23 -50 -28 -56 -19 -5 9 -10 4 -14 -14 -13 -53 10
-50 71 8 32 31 56 56 53 56 -3 0 -27 -14 -54 -31z"/>
<path d="M8469 4276 c6 -13 14 -33 19 -43 60 -113 112 -234 112 -257 0 -5 -8
-2 -17 5 -16 13 -17 12 -4 -3 7 -10 17 -16 21 -13 14 9 160 -465 160 -521 0
-14 -6 -24 -14 -24 -24 0 -183 180 -233 265 l-47 80 -48 -48 c-26 -26 -48 -49
-48 -50 0 -2 45 -25 100 -52 84 -41 97 -51 87 -64 -10 -12 -9 -12 9 -1 18 11
26 6 85 -55 68 -71 84 -93 75 -102 -5 -5 -73 4 -256 33 -19 3 -32 3 -28 -1 4
-4 66 -18 137 -30 117 -21 133 -26 155 -51 21 -25 27 -27 52 -19 39 14 45 56
11 87 -15 14 -27 40 -32 68 -4 24 -29 116 -56 204 -44 147 -46 161 -31 172 16
12 16 12 -1 11 -12 -1 -23 9 -32 31 -11 24 -11 32 -2 32 8 0 7 3 -2 9 -7 5
-26 44 -41 87 -16 44 -31 87 -35 98 -7 16 -6 17 15 6 15 -8 11 0 -14 25 -62
62 -101 140 -58 116 9 -5 66 -50 126 -100 59 -50 110 -91 112 -91 35 0 -207
204 -254 214 -31 7 -32 7 -23 -18z m182 -103 c13 -16 12 -17 -3 -4 -10 7 -18
15 -18 17 0 8 8 3 21 -13z m-100 -20 c13 -16 12 -17 -3 -4 -10 7 -18 15 -18
17 0 8 8 3 21 -13z"/>
<path d="M4590 4287 c5 -6 276 -127 353 -158 26 -10 47 -15 47 -10 0 5 -84 44
-187 86 -211 87 -220 91 -213 82z"/>
<path d="M6090 4256 c0 -2 8 -10 18 -17 15 -13 16 -12 3 4 -13 16 -21 21 -21
13z"/>
<path d="M3040 4217 c-8 -12 -14 -29 -15 -37 0 -8 -5 -15 -12 -15 -7 0 -18 -7
-25 -15 -11 -12 -11 -12 3 -2 13 10 19 9 28 -1 6 -8 8 -17 4 -20 -3 -4 -2 -7
4 -7 16 0 43 46 43 72 0 39 -14 50 -30 25z"/>
<path d="M2785 4106 c-83 -56 -325 -209 -397 -251 -38 -22 -64 -43 -60 -47 14
-14 364 208 487 307 43 35 28 30 -30 -9z"/>
<path d="M3056 4119 c-8 -12 -19 -18 -25 -14 -6 3 -11 0 -11 -9 0 -8 -3 -23
-6 -33 -7 -19 38 27 56 60 15 24 4 21 -14 -4z"/>
<path d="M6220 4136 c0 -2 8 -10 18 -17 15 -13 16 -12 3 4 -13 16 -21 21 -21
13z"/>
<path d="M3090 4072 c0 -7 -11 -12 -25 -12 -14 0 -29 -8 -35 -19 -14 -27 6
-37 22 -11 7 11 19 20 26 20 7 0 11 -4 8 -8 -3 -5 1 -9 9 -9 8 0 12 8 9 20 -4
23 -14 36 -14 19z"/>
<path d="M8540 4026 c0 -2 8 -10 18 -17 15 -13 16 -12 3 4 -13 16 -21 21 -21
13z"/>
<path d="M3000 4011 c0 -5 5 -13 10 -16 6 -3 10 -2 10 4 0 5 -4 13 -10 16 -5
3 -10 2 -10 -4z"/>
<path d="M3116 4006 c4 -10 -4 -16 -25 -21 -17 -3 -34 -4 -39 -1 -5 3 -22 1
-38 -4 -16 -4 -21 -9 -12 -9 25 -1 31 -18 39 -96 l8 -70 -4 83 -3 83 60 -7 61
-7 -24 32 c-25 34 -31 39 -23 17z"/>
<path d="M8246 3975 c5 -12 4 -16 -4 -11 -6 4 -10 -1 -9 -12 2 -26 33 -17 41
11 3 12 3 23 1 26 -3 2 -5 -1 -5 -9 0 -10 -3 -10 -15 0 -13 11 -14 10 -9 -5z"/>
<path d="M8693 3943 c9 -2 23 -2 30 0 6 3 -1 5 -18 5 -16 0 -22 -2 -12 -5z"/>
<path d="M4878 3923 c23 -2 59 -2 80 0 20 2 1 4 -43 4 -44 0 -61 -2 -37 -4z"/>
<path d="M2495 3820 c-13 -5 -14 -9 -5 -9 8 0 24 4 35 9 13 5 14 9 5 9 -8 0
-24 -4 -35 -9z"/>
<path d="M2390 3790 c-30 -10 -50 -18 -45 -19 6 0 37 8 70 18 33 11 53 19 45
19 -8 1 -40 -7 -70 -18z"/>
<path d="M3760 3730 c8 -5 20 -10 25 -10 6 0 3 5 -5 10 -8 5 -19 10 -25 10 -5
0 -3 -5 5 -10z"/>
<path d="M3814 3706 c11 -9 24 -16 30 -16 12 0 7 5 -24 19 -24 11 -24 11 -6
-3z"/>
<path d="M2220 3636 c0 -2 45 -105 101 -227 56 -123 103 -233 106 -244 3 -13
-6 -30 -26 -49 -17 -17 -31 -36 -31 -43 0 -8 -13 -13 -32 -14 l-33 -1 29 -7
c25 -5 33 -16 55 -71 l26 -65 65 0 65 0 40 75 c38 71 43 77 108 108 37 18 87
37 111 44 42 11 47 10 88 -18 64 -43 68 -46 68 -37 0 4 -22 22 -49 40 -37 24
-50 39 -53 60 -3 24 -8 28 -38 31 -19 2 -44 11 -55 20 -18 15 -18 15 1 -8 17
-20 20 -31 13 -56 -7 -26 -19 -36 -70 -58 -74 -32 -88 -32 -116 -2 -16 16 -43
28 -86 36 l-62 11 -109 240 c-97 211 -116 251 -116 235z"/>
<path d="M3916 3598 c3 -5 10 -6 15 -3 13 9 11 12 -6 12 -8 0 -12 -4 -9 -9z"/>
<path d="M8063 3483 c-10 -10 -14 -15 -8 -11 6 4 22 12 36 17 15 6 18 10 8 10
-9 1 -25 -7 -36 -16z"/>
<path d="M3791 3454 c0 -11 3 -14 6 -6 3 7 2 16 -1 19 -3 4 -6 -2 -5 -13z"/>
<path d="M3802 3415 c0 -5 6 -26 13 -45 7 -19 14 -28 14 -20 0 8 -6 29 -14 45
-7 17 -13 26 -13 20z"/>
<path d="M5610 3380 c-8 -5 -10 -10 -5 -10 6 0 17 5 25 10 8 5 11 10 5 10 -5
0 -17 -5 -25 -10z"/>
<path d="M2715 3270 c10 -11 20 -20 23 -20 3 0 -3 9 -13 20 -10 11 -20 20 -23
20 -3 0 3 -9 13 -20z"/>
<path d="M2083 3120 c-55 -22 -45 -92 14 -98 25 -3 35 2 49 22 9 14 24 26 33
27 13 0 14 2 1 6 -8 3 -25 17 -37 30 -24 25 -28 26 -60 13z"/>
<path d="M2263 3063 c9 -2 23 -2 30 0 6 3 -1 5 -18 5 -16 0 -22 -2 -12 -5z"/>
<path d="M7824 2958 l-29 -33 33 29 c17 17 32 31 32 33 0 8 -8 1 -36 -29z"/>
<path d="M4026 2971 c15 -14 217 -143 494 -316 140 -87 275 -171 299 -187 25
-15 48 -28 53 -28 15 0 8 15 -14 29 -55 35 -537 333 -676 418 -139 85 -182
108 -156 84z"/>
<path d="M7549 2609 c-36 -36 -6 -99 47 -99 28 0 37 32 16 61 -11 16 -12 24
-4 27 7 2 12 10 12 18 0 21 -47 17 -71 -7z"/>
<path d="M3457 2532 c-24 -26 -22 -79 2 -92 32 -17 69 -12 85 12 21 30 20 54
-4 78 -25 25 -62 26 -83 2z"/>
</g>
</svg>
